<svg xmlns="http://www.w3.org/2000/svg" width="2720" height="1024" viewBox="0 0 2720 1024">
    <g fill="none" fill-rule="evenodd" stroke="#FFF" opacity=".2">
        <path d="M2268.17-146.329c359.177 96.772 966.946 880.745-130.32 1259.073-1097.264 378.328-1895.338 71.054-2303.7-205.397C-574.213 630.895 549.036 56.125 1141.32 107.125c592.286 51 767.67-350.226 1126.848-253.454z"/>
        <path d="M2209.986-202.796c362.088 71.018 1017.975 804.456-41.246 1253.905-1059.222 449.45-1870.186 200.435-2293.448-44.869C-547.97 760.937 523.277 115.463 1112.8 125.211c589.523 9.748 735.097-399.025 1097.185-328.007z"/>
        <path d="M2148.518-254.553c363.17 45.33 1063.11 725.371 46.466 1242.5C1178.339 1505.074 358.69 1314.611-77.131 1101.177-512.953 887.744 501.946 175.991 1085.862 145.12c583.915-30.87 699.486-445.004 1062.656-399.673z"/>
        <path d="M2084.136-301.42c362.447 19.84 1102.214 643.94 132.385 1225.02-969.828 581.082-1793.975 449.164-2239.99 268.148-446.015-181.016 508.55-954.365 1084.087-1025.027C1636.155 96.058 1721.69-321.26 2084.136-301.42z"/>
        <path d="M2017.22-343.244c359.952-5.329 1135.18 560.612 216.096 1201.663-919.083 641.05-1743.587 567.371-2197.413 419.148C-417.923 1129.344 472.7 299.313 1037.174 189.873c564.475-109.44 620.096-527.789 980.047-533.117z"/>
        <path d="M1948.16-379.903c355.724-30.053 1161.932 475.848 297.198 1172.65-864.735 696.8-1685.52 680.766-2144.773 565.538-459.253-115.228 364.208-996.828 915.037-1143.852 550.829-147.024 576.812-564.283 932.537-594.336z"/>
        <path d="M1877.343-411.302C2227.159-465.518 3059.782-21.2 2252.66 726.926c-807.121 748.126-1620.195 788.858-2082.502 706.655-462.306-82.203 291.17-1010.086 825.884-1193.331 534.713-183.245 531.484-597.337 881.3-651.552z"/>
        <path d="M1805.166-437.378c342.285-77.703 1196.691 303.831 450.097 1098.675-746.595 794.844-1548.07 891.19-2011.08 841.874-463.008-49.317 218.072-1018.06 734.321-1236.002 516.25-217.943 484.376-626.843 826.662-704.547z"/>
        <path d="M1732.023-458.094c333.195-100.408 1204.717 217.486 521.204 1054.285-683.513 836.8-1469.626 987.346-1931.02 970.612C-139.187 1550.068 467.494 546 963.066 295.033c495.571-250.969 435.76-652.719 768.957-753.127z"/>
        <path d="M1658.306-473.445c322.62-122.228 1206.578 131.512 588.334 1005.378C1628.395 1405.8 861.27 1608.881 403.762 1624.261c-457.509 15.381 73.189-1018.4 546.01-1300.582 472.822-282.182 385.915-674.896 708.534-797.124z"/>
        <path d="M1584.405-483.452c310.637-143.068 1202.363 46.344 651.204 952.291-551.16 905.947-1295.829 1159.655-1747.24 1206.528-451.41 46.873 2.137-1010.962 450.288-1322.42 448.15-311.459 335.112-693.331 645.748-836.399z"/>
        <path d="M1510.703-488.165c297.33-162.838 1192.196-37.592 709.562 895.377-482.634 932.969-1201.553 1235.172-1644.72 1312.764-443.165 77.591-67.522-998.622 354.196-1337.304 421.718-338.682 283.632-708 580.962-870.837z"/>
        <path d="M1437.574-487.662c282.792-181.455 1176.227-119.882 763.185 835.006-413.043 954.89-1103.105 1303.246-1535.96 1410.637-432.854 107.39-135.454-981.537 258.234-1345.288 393.689-363.752 231.75-718.9 514.541-900.355z"/>
        <path d="M1365.384-482.045C1632.5-680.892 2520.02-682.178 2177.26 289.514 1834.5 1261.205 1176.2 1653.177 755.638 1789.312 335.076 1925.446 554.3 829.424 918.531 442.846c364.232-386.578 179.736-726.044 446.853-924.89z"/>
        <path d="M1294.486-471.443c250.404-214.944 1127.631-277.963 855.471 705.426-272.16 983.388-896 1416.258-1302.387 1579.951-406.388 163.693-264.874-933.877 68.65-1340.962 333.524-407.085 127.862-729.47 378.266-944.415z"/>
        <path d="M1225.22-456.009c232.758-229.69 1095.444-353.01 893.837 637.007-201.608 990.017-788.516 1460.908-1178.952 1650.851-390.435 189.944-325.775-903.726-24.03-1328.936 301.743-425.21 76.388-729.232 309.146-958.922z"/>
        <path d="M1157.913-435.918c214.284-243.03 1058.327-424.937 926.866 566.706-131.462 991.643-679.2 1497.533-1052.018 1712.307-372.818 214.774-383.778-869.674-114.706-1310.58 269.073-440.905 25.574-725.402 239.858-968.433z"/>
        <path d="M1092.872-411.368c195.093-254.925 1016.561-493.422 954.487 494.932-62.074 988.354-568.643 1526.096-922.297 1764.178-353.655 238.081-438.638-831.977-202.946-1286.112 235.692-454.136-24.337-718.073 170.756-972.998z"/>
        <path d="M1030.388-382.576c175.294-265.338 970.444-558.172 976.658 422.093 6.214 980.265-457.431 1546.605-790.503 1806.378C883.47 2105.667 726.41 1054.989 928.198 590.11c201.786-464.878-73.104-707.35 102.19-972.687z"/>
        <path d="M970.733-349.779c155-274.242 920.29-618.915 993.366 348.598 73.075 967.513-346.145 1559.109-657.347 1838.872-311.201 279.764-538.06-746.746-370.52-1219.87 167.538-473.126-120.5-693.358 34.501-967.6z"/>
        <path d="M914.158-313.229c134.326-281.622 866.433-675.408 1004.628 274.85 138.196 950.256-235.354 1563.696-523.533 1861.678-288.178 297.982-582.243-699.791-449.114-1178.673 133.13-478.882-166.307-676.233-31.981-957.855z"/>
        <path d="M860.893-273.194c113.382-287.466 809.219-727.433 1010.494 201.245 201.274 928.677-125.616 1560.501-389.76 1874.866S859.097 1152.57 957.835 670.403c98.739-482.167-210.324-656.13-96.942-943.597z"/>
        <path d="M811.145-229.957c92.282-291.775 749.007-774.799 1011.037 128.175 262.03 902.974-17.47 1549.691-256.71 1878.552-239.24 328.861-658.79-598.727-594.249-1081.737 64.541-483.01-252.36-633.214-160.078-924.99z"/>
        <path d="M765.099-183.81c71.136-294.555 686.166-817.345 1006.364 56.02 320.198 873.363 88.56 1531.472-125.051 1872.902-213.612 341.43-690.92-545.25-660.21-1026.705 30.708-481.455-292.24-607.663-221.103-902.217z"/>
        <path d="M722.915-135.058c50.056-295.82 621.072-854.936 996.604-14.853 375.531 840.083 191.975 1506.088 4.569 1858.129-187.406 352.041-718.836-490.235-721.428-967.792-2.593-477.558-329.801-579.665-279.745-875.484z"/>
        <path d="M684.73-84.013c29.148-295.594 554.108-887.468 981.914-84.088 427.805 803.38 292.295 1473.812 131.525 1834.49-160.77 360.676-742.484-434.01-777.686-905.393-35.202-471.383-364.9-549.415-335.753-845.009z"/>
        <path d="M650.656-30.991c8.515-293.907 485.66-914.865 962.475-151.347s389.067 1434.951 255.218 1802.28c-133.85 367.33-761.833-376.896-828.799-839.905-66.966-463.009-397.409-517.122-388.894-811.028z"/>
        <path d="M620.78 23.684c-11.74-290.795 416.114-937.08 938.49-216.309 522.377 720.772 481.87 1389.843 375.079 1761.844-106.79 372-776.876-319.22-874.614-771.743C961.997 344.953 632.52 314.48 620.78 23.684z"/>
        <path d="M595.167 79.688c-31.522-286.304 345.856-954.097 910.185-278.67 564.33 675.427 570.304 1338.849 490.566 1713.554-79.739 374.705-787.63-261.297-915.01-701.32-127.381-440.024-454.22-447.259-485.741-733.564z"/>
        <path d="M573.852 136.697c-50.736-280.485 275.271-965.924 877.806-338.15 602.535 627.775 654.007 1282.357 601.174 1657.823-52.832 375.467-794.133-203.444-949.896-629.059-155.764-425.614-478.349-410.128-529.084-690.614z"/>
        <path d="M556.85 194.387C487.555-79.008 761.586-778.214 1398.465-200.1s732.648 1220.774 706.436 1595.093c-26.212 374.319-796.451-145.969-979.218-555.38C942.917 430.202 626.145 467.782 556.85 194.387z"/>
        <path d="M544.15 252.436c-87.116-265.096 134.624-974.193 801.893-447.44 667.269 526.753 805.929 1154.531 805.918 1525.836-.01 371.305-794.668-89.169-1002.947-480.704C940.735 458.592 631.267 517.53 544.15 252.436z"/>
        <path d="M535.72 310.528c-104.123-255.655 65.295-970.79 758.932-496.797 693.636 473.994 873.586 1084.071 899.229 1450.55 25.643 366.48-788.89-33.332-1021.09-405.448-232.202-372.115-532.948-292.65-637.071-548.305z"/>
        <path d="M531.502 368.356c-120.243-245.148-2.899-962.515 713.039-542.368 715.937 420.147 935.393 1009.852 986.017 1369.754 50.624 359.902-779.242 21.262-1033.684-330.022s-545.13-252.217-665.372-497.364z"/>
        <path d="M531.417 425.616C396.006 191.968 461.8-523.888 1195.949-158.369c734.15 365.518 991.158 932.343 1065.974 1283.987 74.815 351.645-765.87 74.351-1040.794-254.83-274.923-329.181-554.301-211.523-689.712-445.172z"/>
        <path d="M535.365 482.019c-149.569-221.24-134.537-931.926 613.737-621.512C1897.375 170.92 2189.829 712.53 2287.934 1054.313c98.105 341.784-748.936 125.684-1042.513-180.266C951.843 568.098 684.934 703.26 535.365 482.02z"/>
        <path d="M543.227 537.283C380.562 329.276 345.877-372.685 1104.21-117.55c758.334 255.135 1083.984 769.372 1204.373 1099.778 120.388 330.405-728.62 175.025-1038.968-106.71C959.267 593.784 705.89 745.29 543.227 537.283z"/>
        <path d="M554.862 591.142C380.21 397.106 297.098-292.695 1061.472-92.72 1825.848 107.256 2182.32 592.157 2323.888 909.76c141.57 317.601-705.117 222.157-1030.305-34.528-325.188-256.685-564.069-90.054-738.72-284.09z"/>
        <path d="M570.113 643.34C384.62 463.925 254.607-210.42 1021.07-65.195c766.462 145.225 1151.27 599.02 1312.827 902.49 161.557 303.47-678.634 266.88-1016.7 35.93-338.066-230.952-561.592-50.47-747.084-229.885z"/>
        <path d="M588.805 693.641C393.65 529.404 218.482-126.34 983.167-35.179c764.685 91.16 1175.248 512.286 1355.52 800.4 180.273 288.114-649.392 309.008-998.35 104.325-348.96-204.683-556.376-11.668-751.532-175.905z"/>
        <path d="M610.75 741.821C407.132 593.227 188.765-40.94 947.913-2.887c759.148 38.054 1192.807 425.15 1390.45 696.791 197.642 271.642-617.623 348.38-975.478 170.35-357.855-178.03-548.518 26.161-752.135-122.433z"/>
        <path d="M635.742 787.675C424.883 655.097 165.462 45.3 915.438 31.461c749.976-13.838 1204.01 338.077 1417.614 592.243 213.604 254.165-583.567 384.85-948.321 233.707-364.755-151.143-538.13 62.843-748.989-69.736z"/>
        <path d="M663.567 831.017C446.695 714.733 148.544 131.907 885.855 67.636 1623.167 3.365 2094.807 319.163 2322.91 554.964c228.102 235.8-547.472 418.294-917.142 294.126-369.67-124.167-525.33 98.21-742.201-18.073z"/>
        <path d="M693.996 871.676c-221.65-99.802-556.05-653.26 165.263-766.273C1580.572-7.611 2067.02 271.346 2308.113 488.01c241.093 216.665-509.591 448.608-882.213 351.36-372.62-97.248-510.253 132.107-731.904 32.305z"/>
        <path d="M726.793 909.505c-225.201-83.225-593.22-605.132 108.933-764.982 702.153-159.85 1200.597 81.754 1453.136 278.633 252.54 196.88-470.185 475.709-843.827 405.183-373.642-70.526-493.04 164.391-718.242 81.166z"/>
        <path d="M761.713 944.374c-227.533-66.644-626.42-555.039 53.6-759.618 680.02-204.58 1187.65-.63 1450.063 175.934 262.414 176.563-429.514 499.533-802.288 455.395-372.773-44.138-473.843 194.933-701.375 128.29z"/>
        <path d="M798.504 976.174c-228.662-50.145-655.557-503.298-.444-750.316 655.112-247.018 1169.133-80.816 1439.834 75.024 270.7 155.84-387.842 520.04-757.91 501.824-370.067-18.215-452.817 223.614-681.48 173.468z"/>
        <path d="M836.912 1004.817C608.3 971 156.344 554.589 783.986 267.587c627.641-287 1145.292-158.435 1422.684-23.604 277.391 134.83-345.43 537.205-711.014 544.32-365.585 7.117-430.13 250.33-658.744 216.514z"/>
        <path d="M876.678 1030.234c-227.415-17.741-701.41-396.151-103.585-720.53 597.826-324.38 1116.394-233.141 1398.88-119.486 282.488 113.656-302.535 551.03-661.93 582.765-359.394 31.735-405.95 274.991-633.365 257.25z"/>
        <path d="M917.54 1052.377c-225.101-1.996-718.066-341.386-152.173-700.41C1331.26-7.057 1848.092 47.357 2134.09 139.79c285.998 92.434-259.42 561.53-610.994 617.06-351.574 55.53-380.455 297.523-605.556 295.526z"/>
        <path d="M959.24 1071.22c-221.715 13.34-730.545-286.251-198.467-677.076C1292.851 3.32 1805.37 21.6 2093.311 92.881c287.943 71.282-216.33 568.746-558.539 647.14-342.208 78.394-353.818 317.86-575.532 331.2z"/>
        <path d="M1001.518 1086.757c-217.299 28.194-738.876-231.06-242.257-650.75C1255.881 16.317 1761.595-.67 2049.942 49.642c288.348 50.314-173.515 572.732-504.903 672.962-331.388 100.23-326.222 335.959-543.521 364.153z"/>
        <path d="M1044.12 1098.999C832.214 1141.5 301.005 922.88 760.765 477.333c459.759-445.548 956.28-496.769 1243.529-467.13 287.248 29.64-131.211 573.563-450.422 694.51-319.21 120.947-297.847 351.785-509.752 394.286z"/>
        <path d="M1086.795 1107.978c-205.59 56.197-743.337-121.724-321.595-590.07C1186.943 49.564 1671.99-34.695 1956.68-25.33c284.69 9.366-89.645 571.33-395.423 711.793-305.778 140.464-268.874 365.318-474.462 421.515z"/>
        <path d="M1129.298 1113.746c-198.407 69.223-739.64-68.167-356.827-556.218C1155.284 69.478 1626.7-46.475 1907.423-56.88c280.72-10.405-49.037 566.141-340.236 724.849-291.198 158.707-239.481 376.553-437.889 445.777z"/>
        <path d="M1171.394 1116.37c-190.424 81.528-732.145-15.725-388.93-520.373C1125.68 91.35 1581.44-54.815 1856.84-84.393c275.4-29.577-9.59 558.12-285.174 733.735s-209.848 385.501-400.272 467.029z"/>
        <path d="M1212.854 1115.938C1031.15 1209 491.867 1151.272 795.056 633.131 1098.244 114.99 1536.46-59.78 1805.252-107.84c268.791-48.06 28.498 547.401-230.55 738.533-259.047 191.132-180.145 392.183-361.848 485.244z"/>
        <path d="M1253.46 1112.55c-172.315 103.785-706.324 84.762-443.352-443.793 262.971-528.554 681.904-730.206 942.868-795.974 260.964-65.768 65.05 534.138-176.657 739.352-241.707 205.214-150.545 396.632-322.86 500.416z"/>
        <path d="M1293.005 1106.325c-162.327 113.658-688.328 132.318-465.533-403.609 222.795-535.927 620.857-762.639 872.852-845.261 251.995-82.623 99.896 518.49-123.783 736.315-223.68 217.824-121.21 398.897-283.536 512.555z"/>
        <path d="M1331.295 1097.394c-151.812 122.653-667.19 177.784-484.305-362.533 182.884-540.317 558.65-790.176 800.613-888.728 241.963-98.552 132.888 500.631-72.198 729.57-205.085 228.937-92.299 399.037-244.11 521.69z"/>
        <path d="M1368.148 1085.9c-140.843 130.746-643.11 220.958-499.654-320.84 143.455-541.797 495.66-812.819 726.616-926.31 230.955-113.492 163.889 480.742-22.156 719.28-186.045 238.539-63.962 397.124-204.806 527.87z"/>
        <path d="M1403.398 1072.002c-129.496 137.916-616.308 261.652-511.59-278.806C996.526 252.737 1324.074-37.4 1543.134-164.782c219.059-127.384 192.78 459.013 26.103 705.63-166.676 246.618-36.344 393.237-165.84 531.154z"/>
        <path d="M1436.89 1055.865c-117.842 144.152-587.008 299.702-520.14-236.702 66.87-536.403 368.835-843.556 575.202-983.735 206.366-140.178 219.459 435.64 72.36 688.818s-9.578 387.467-127.421 531.62z"/>
        <path d="M1468.49 1037.667c-105.96 149.446-555.45 334.959-525.355-194.79 30.095-529.75 305.72-851.79 498.693-1003.625 192.972-151.834 243.84 410.824 116.413 669.054-127.427 258.23 16.209 379.915-89.75 529.361z"/>
        <path d="M1498.075 1017.592c-93.92 153.796-521.878 367.298-527.307-153.33C965.34 343.633 1214.04 8.858 1393.013-153.457c178.972-162.315 265.855 384.77 158.08 646.564-107.776 261.793 40.902 370.688-53.018 524.485z"/>
        <path d="M1525.54 995.83c-81.794 157.209-486.543 396.612-526.083-112.567-39.54-509.18 181.82-854.53 346.285-1026.126 164.464-171.596 285.452 357.685 197.198 621.582-88.254 263.896 64.396 359.903-17.4 517.111z"/>
        <path d="M1550.799 972.579c-69.658 159.692-449.703 422.816-521.795-72.74-72.091-495.556 121.68-849.328 271.228-1028.985 149.548-179.656 302.598 329.779 233.63 594.353-68.97 264.574 86.595 347.68 16.937 507.372z"/>
        <path d="M1573.779 948.037c-57.578 161.262-411.616 445.846-514.565-34.073-102.949-479.918 63.153-839.975 197.473-1026.462 134.32-186.487 317.276 301.256 267.253 565.127-50.023 263.871 107.416 334.147 49.839 495.408z"/>
        <path d="M1594.426 922.409c-45.62 161.938-372.543 465.657-504.536 3.22-131.993-462.436 6.518-826.672 125.397-1018.755 118.879-192.084 329.486 272.325 297.974 534.162-31.512 261.838 126.787 319.435 81.165 481.373z"/>
        <path d="M1612.705 895.897c-33.854 161.746-332.746 482.228-491.867 38.942-159.12-443.285-47.962-809.636 55.359-1006.087 103.321-196.45 339.244 243.189 325.716 501.719-13.529 258.53 144.645 303.679 110.792 465.426z"/>
        <path d="M1628.594 868.704c-22.337 160.717-292.483 495.555-476.726 72.91-184.242-422.644-100.05-789.102-12.308-988.702 87.743-199.6 346.584 214.043 350.426 468.057 3.842 254.014 160.945 287.018 138.608 447.735z"/>
        <path d="M1642.09 841.032c-11.13 158.884-252.01 505.658-459.296 104.957-207.287-400.7-149.53-765.32-77.293-966.871 72.237-201.55 351.553 185.083 372.072 433.44 20.52 248.357 175.646 269.591 164.517 428.474z"/>
        <path d="M1653.206 813.08c-.287 156.284-211.578 512.572-439.774 134.932-228.195-377.64-196.203-738.552-139.31-940.88 56.892-202.328 354.215 156.493 390.646 398.127 36.432 241.634 188.725 251.539 188.438 407.822z"/>
        <path d="M1661.97 785.043c10.141 152.96-171.43 516.354-418.36 162.703-246.929-353.65-239.902-709.072-198.104-911.037 41.797-201.965 354.646 128.45 406.159 362.375 51.512 233.925 200.165 233 210.306 385.96z"/>
        <path d="M1668.428 757.109c20.105 148.957-131.806 517.08-395.269 188.157-263.462-328.924-280.479-677.162-253.445-877.662 27.034-200.5 352.939 101.125 418.642 326.435 65.703 225.31 209.967 214.113 230.072 363.07z"/>
        <path d="M1672.637 729.46c29.564 144.323-92.931 514.842-370.716 211.198-277.785-303.645-317.814-643.11-305.133-841.09 12.68-197.979 349.194 74.675 428.147 290.553 78.953 215.877 218.138 195.016 247.702 339.339z"/>
        <path d="M1674.67 702.27c38.478 139.11-55.023 509.75-344.926 231.75-289.904-278-351.81-607.21-352.996-801.662-1.187-194.452 343.527 49.247 434.745 254.961 91.219 205.715 224.698 175.842 263.177 314.95z"/>
        <path d="M1674.612 675.705c46.816 133.37-18.285 501.928-318.124 249.757C1056.65 673.292 974.095 355.7 959.594 165.728c-14.5-189.973 336.063 24.978 438.526 219.89 102.463 194.913 229.677 156.718 276.492 290.087z"/>
        <path d="M1672.563 649.921c54.544 127.157 17.087 491.514-290.538 265.18s-409.52-531.06-436.717-715.662c-27.197-184.603 326.935 1.991 439.594 185.554 112.66 183.563 233.116 137.772 287.66 264.928z"/>
        <path d="M1668.63 625.063c61.643 120.528 50.917 478.661-262.395 278.001-313.313-200.66-433.169-491.4-472.385-669.806-39.217-178.407 316.287-19.603 438.073 152.156 121.787 171.759 235.065 119.121 296.707 239.65z"/>
        <path d="M1662.935 601.265c68.089 113.54 83.037 463.534-233.924 288.22-316.962-175.313-453.339-451.076-503.847-622.527-50.508-171.451 304.268-39.708 434.1 119.885 129.832 159.593 235.581 100.88 303.67 214.422z"/>
        <path d="M1655.604 578.647c73.87 106.253 113.302 446.31-205.345 295.86-318.648-150.45-470.057-410.378-531.083-574.186-61.026-163.808 291.033-58.24 427.824 88.917 136.792 147.157 234.734 83.155 308.604 189.409z"/>
        <path d="M1646.777 557.318c78.976 98.724 141.577 427.17-176.88 300.954C1151.439 732.055 986.524 488.69 915.795 333.14c-70.73-155.551 276.742-75.133 419.41 59.41 142.667 134.541 232.596 66.044 311.572 164.768z"/>
        <path d="M1636.595 537.374c83.402 91.01 167.747 406.31-148.74 303.56-316.486-102.751-493.354-328.962-572.94-475.717-79.587-146.756 261.557-90.33 409.027 31.507 147.47 121.837 229.252 49.64 312.653 140.65z"/>
        <path d="M1625.21 518.896c87.147 83.168 191.712 383.93-121.13 303.75-312.843-80.18-500.097-288.779-587.667-426.278-87.57-137.5 245.648-103.796 396.863 5.334 151.215 109.13 224.787 34.025 311.934 117.194z"/>
        <path d="M1612.775 501.951c90.216 75.257 213.39 360.232-94.249 301.613-307.64-58.618-503.71-249.282-598.37-377.143-94.658-127.86 229.178-115.503 383.106-18.998 153.927 96.504 219.297 19.27 309.513 94.528z"/>
        <path d="M1599.447 486.593c92.618 67.33 232.72 335.425-68.282 297.253C1230.163 745.675 1026.842 573.14 926 455.22c-100.842-117.918 212.312-125.443 367.95-41.402 155.637 84.04 212.879 5.444 305.497 72.775z"/>
        <path d="M1585.386 472.86c94.367 59.442 249.655 309.721-43.405 290.79-293.059-18.93-502.084-173.275-608.195-281.027-106.111-107.75 195.216-133.622 351.597-61.806 156.38 71.816 205.636-7.4 300.003 52.042z"/>
        <path d="M1570.753 460.775c95.48 51.646 264.165 283.332-19.782 282.357-283.947-.975-497.158-137.191-607.624-234.628-110.466-97.438 178.052-140.058 334.253-80.155 156.2 59.902 197.672-19.22 293.153 32.426z"/>
        <path d="M1555.706 450.35c95.979 43.988 276.242 256.466 2.438 272.096-273.804 15.63-489.72-102.64-603.632-189.695-113.914-87.053 160.976-144.782 316.12-96.414 155.142 48.368 189.096-29.974 285.074 14.013z"/>
        <path d="M1540.405 441.58c95.888 36.516 285.892 229.334 23.117 260.164-262.774 30.83-479.96-69.794-596.424-146.47-116.465-76.676 144.143-147.844 297.404-110.568 153.261 37.275 180.016-39.641 275.903-3.126z"/>
        <path d="M1525.005 434.447c95.237 29.274 293.14 202.14 42.136 246.727-251.004 44.587-468.08-38.803-586.22-105.18-118.14-66.376 127.698-149.3 278.309-122.617 150.611 26.682 170.539-48.203 265.775-18.93z"/>
        <path d="M1509.658 428.92c94.056 22.303 298.024 175.085 59.387 231.958-238.638 56.873-454.292-9.795-573.253-66.022-118.962-56.228 111.78-149.223 259.034-132.584 147.254 16.64 160.775-55.656 254.832-33.352z"/>
        <path d="M1494.509 424.953c92.382 15.641 300.605 148.362 74.783 216.04-225.823 67.676-438.81 17.118-557.77-29.178-118.96-46.295 96.52-147.693 239.773-140.501 143.252 7.191 150.832-62.003 243.214-46.361z"/>
        <path d="M1479.699 422.49c90.252 9.321 300.953 122.16 88.25 199.157-212.702 76.998-421.861 41.847-540.031 5.203-118.17-36.644 82.041-144.806 220.715-146.427 138.674-1.62 140.814-67.255 231.066-57.934z"/>
        <path d="M1465.362 421.461c87.704 3.375 299.155 96.656 99.734 181.504-199.422 84.848-403.673 64.324-520.304 36.988-116.631-27.335 68.454-140.663 202.041-150.428 133.588-9.765 130.825-71.439 218.529-68.064z"/>
        <path d="M1451.622 421.788c84.78-2.173 295.311 72.019 109.195 163.272-186.117 91.253-384.472 84.5-498.86 66.075-114.389-18.424 55.86-135.377 183.923-152.592 128.062-17.215 120.96-74.582 205.742-76.755z"/>
        <path d="M1438.595 423.38c81.525-7.3 289.537 48.405 116.613 144.657-172.924 96.251-364.49 102.348-475.979 92.385-111.49-9.963 44.351-129.066 166.522-153.017 122.17-23.95 111.319-76.726 192.844-84.025z"/>
        <path d="M1425.992 425.992c77.992-12 281.992 25.992 122 126-159.992 100.008-344 118-452 116S1130 545.994 1246 516c116-29.994 102-78.008 179.992-90.008z"/>
    </g>
</svg>
