<?xml version="1.0" encoding="utf-8"?>
<!-- Generator: Adobe Illustrator 22.0.0, SVG Export Plug-In . SVG Version: 6.00 Build 0)  -->
<svg version="1.1" id="Слой_1" xmlns="http://www.w3.org/2000/svg" xmlns:xlink="http://www.w3.org/1999/xlink" x="0px" y="0px"
	 viewBox="0 0 301.4 80" style="enable-background:new 0 0 301.4 80;" xml:space="preserve">
<style type="text/css">
	.st0{fill:#FFFFFF;}
	.st1{fill:#DEE1E3;}
	.st2{fill:#FFE600;}
	.st3{font-family:'MyriadPro-Regular';}
	.st4{font-size:24px;}
</style>
<path class="st0" d="M96.8,33h7.2v22h5.1V33h7v-4.3H96.8V33z M166.9,36.7h-5.7l-6.6,7.8V29.3l-4.9,1.8V55h4.9v-8.9l6.5,8.9h5.8
	l-7.3-9.8L166.9,36.7z M183,38.8c-0.8-0.8-1.7-1.5-2.9-1.9c-1.1-0.4-2.3-0.7-3.6-0.7c-1.3,0-2.5,0.2-3.6,0.7
	c-1.1,0.4-2.1,1.1-2.9,1.9c-0.8,0.8-1.4,1.8-1.9,3c-0.4,1.2-0.7,2.5-0.7,4.1c0,1.5,0.2,2.8,0.6,4s1,2.2,1.8,3
	c0.8,0.8,1.7,1.5,2.8,1.9c1.1,0.5,2.3,0.7,3.7,0.7c1.3,0,2.5-0.2,3.6-0.7c1.1-0.4,2.1-1.1,2.9-1.9c0.8-0.8,1.4-1.8,1.9-3
	s0.7-2.5,0.7-4.1c0-1.5-0.2-2.8-0.7-4C184.4,40.6,183.8,39.6,183,38.8 M180.3,48.1c-0.2,0.7-0.4,1.3-0.8,1.8
	c-0.3,0.5-0.8,0.9-1.3,1.2s-1.1,0.4-1.7,0.4c-1.3,0-2.3-0.5-3-1.5c-0.7-1-1.1-2.4-1.1-4.2c0-1.6,0.3-2.9,1-4c0.7-1.1,1.7-1.6,3-1.6
	c1.4,0,2.4,0.5,3.1,1.6c0.7,1,1.1,2.4,1.1,4.1C180.5,46.6,180.4,47.4,180.3,48.1 M121,28.7c-0.8,0-1.5,0.3-2.1,0.8
	c-0.6,0.6-0.8,1.2-0.8,2c0,0.8,0.3,1.4,0.8,2c0.6,0.6,1.3,0.8,2.1,0.8s1.5-0.3,2-0.8c0.6-0.6,0.9-1.2,0.9-2c0-0.8-0.3-1.5-0.9-2
	C122.5,29,121.8,28.7,121,28.7"/>
<path class="st0" d="M118.5,36.6h4.9V55h-4.9V36.6z M138.7,36.4c-3.6-0.3-5.6,1.7-5.6,1.7v-1.5h-4.9V55h4.9V44
	c0-1.9,1.6-3.4,3.5-3.4s3.5,1.5,3.5,3.4v11h4.9V44.1C145,38.4,141.6,36.7,138.7,36.4 M190.2,36.2v0.3h-3v3.8h3V55h4.9V40.3h2.9v-3.8
	h-2.9v-0.4c0-2.5,1.2-3.8,3.5-3.4l0.8-3.8C191.9,28.1,190.2,32.1,190.2,36.2 M202.9,36.2v0.3h-3v3.8h3V55h4.9V40.3h2.9v-3.8h-2.9
	v-0.4c0-2.5,1.2-3.8,3.5-3.4l0.8-3.8C204.6,28.1,202.9,32.1,202.9,36.2"/>
<g>
	<path class="st1" d="M25.5,58c1.1-0.9,2-1.3,2-3.5c-1.7,0.9-6.5,0.8-8.5-1.9c-0.6-0.8,0-1.2,0.6-0.6c1.4,1.5,3.9,0.8,4.8,0.4
		c-0.1-0.5-0.6-1.2-0.9-1.5c0.3-0.3,1.3-0.8,1.5-1.7c-0.5-0.3-2.6-0.5-2.6-0.5c0.3-0.3,0.7-0.8,0.5-1.9c-2.1,0.6-4.6-0.2-5.2-1
		s0-1.5,0.5-1c1,1.1,6.1,2.3,8,0.4c-0.7-0.2-1.5-0.8-1.6-1.2c1.8-0.2,3.1-1.2,3.3-2.5c-1,0-2.8-0.1-3.4-0.5c0.8-0.3,1.4-0.6,1.6-1.6
		c-3.2-0.2-3.5-2.6-3.5-3c2.1,1.2,5.8,0.7,4.8-2.3c-1.7-0.1-3.5-2.9,1.3-5.5c4.3-2.3,9.3-4.9,8.8-9c-0.3-2.7-4.7-4.5-5.2-5.8
		c-1.8,0.9-2.2,1.9-1.4,3.6c0,0-4.1,0.4-4.4-2.1c-0.1-1.1,0.6-2.2,1.4-3c-0.5,0-3.5-0.8-4.5,1.7c-1.7-1.2-3.2-1.1-4.4,0.1
		c1.9,1.1,3,4.9,6.1,6c-2.2,1.2-5.7,0.7-7.8-2.9c-1.9,2.9-3.1,5.8,1.1,8.9C11,29.6,11.1,36.2,4.5,39.3c0.7,1.8,2.1,1.8,3.9,1.5
		C5.5,44.5,8,48.4,3.5,50c0.4,1.5,1.3,2.7,2.9,2.3C5.9,53,5.6,53,4.8,53.8c2.5,1.6,5.4,0.4,6.1-4.6c0.1-0.9,1.3-0.3,0.9,0.5
		C9,55.6,16.1,60,13.6,64.3c2.2-0.1,3.9-0.3,4.8-1c0.5,0.9,0.7,1.8,0.6,2.7c1.2-0.2,1.7-1,1.8-1.8c0.8,2.3,3.7,4.9,8.3,4.9
		C26.7,65.5,29,62,25.5,58 M21,62.3L20,64c-0.4-1.1-1-2.2-1.4-3.1c-0.8,1.6-2,1.7-3.2,1.7c0.3-3.9-4.6-7.8-2.5-12.3
		c0.4-0.9,0.2-2-0.8-2.4c-3.3-1.7-1.8,5.3-5.1,5.5c0.6-0.8,0.9-2.4,1-2.6C7.3,51,5.6,52,4.9,50.7c1.9-1,2.5-2.6,2.8-4.2
		c0.4-2,0.6-2.9,0.9-3.7c0.4-0.9,1.1-1.6,2.4-3.4c-0.3,0.1-4,0.8-4.9,0.4c6.4-3.9,5-8.9,14.7-13.4c-2.6-1.9-5.2-3.4-3.3-7
		c2.7,3.2,7.7,2.1,10.5,0.6c-2.7-0.5-6.2-2.9-7-5.6c1-0.2,2.3,0.9,3.1,1.5c0.4-1,0.5-2.1,1.7-2.4c-1.6,3.4,1.5,5.2,4.5,5.2
		c0.5,0,2.4-0.2,2.4-0.2c-0.3-0.6-1.6-2.4-0.6-3.1c0.7,0.7,1.6,1.2,2.4,1.8c5.8,4.5-2.8,8.7-6.3,10.5c-5.5,3-4,6.5-1.7,7.4
		c0,0.4-0.3,0.6-0.6,0.7c-1.6,0.5-3.1-0.6-4.4-1.3c0.1,2.2-0.1,4.3,2.4,5.6l-1.7,0.6c1.5,1.1,1.9,1.7,3.6,1.9C25,43,24,43,23.1,43.1
		c0.2,0.6,0.4,1.4,0.9,2c-3.6,0.4-5-1.6-6.1-1.5c-2.4,0.2-2.2,4.6,3.6,4.6l-0.6,1c0,0,1.1,0.6,2.1,0.8c-0.4,0.3-0.8,0.7-1.1,1.1
		l0.9,0.8c-2.4,0.4-3-2.1-4.6-0.9c-2.3,1.9,2.8,5.8,7.8,5.2c-0.4,0.5-1.6,1.3-2.1,1.7c4,3.8,2,7.4,3.7,10.1
		C24.2,67.6,21.6,65.1,21,62.3 M14.6,48.4c0.8,0.9,1.9,1,3.8,0.8c-2.1-0.3-3.3-0.8-4-2.2c-0.1-0.7-0.2-1.5-0.2-2.3
		c-0.1-2.2,0.7-4.9,2.2-7.8c0,1.8,1.4,4.7,4.7,5.2c-2.9-1.3-4.6-4.1-3.7-6.9c0.6-1,1.3-2,2-3c0.4-0.5,0.8-1,1.1-1.4
		c-0.4,1.4,1.3,2.9,2.5,3.1c-0.6-0.6-1.9-2.6,1.1-5.8c-0.9,0.4-1.8,1-2.5,1.5c5.6-6,10.2-6.2,12.3-9.2c-3,2.1-11.1,3.2-14.7,2.2
		c2,1.3,6.8,1.2,8,1c-3.9,3.8-12.5,7.8-14,11.3c2.1-2.3,3.4-2.7,5.3-3.3c-1.4,2.1-2.7,4-3.6,6.2c-2.3,5-5.3,5-5.5,9.1
		c1-3.2,3.2-4,4.6-6.1c-0.3,1.3-0.4,2.8-0.3,4.5c0.1,1.9,0.4,3.5,1,4.9c-0.1,2,0,5.5,2.4,7.8c-1.6-2-1.9-5.2-1.8-6.5
		c1.8,3.5,7,8.3,9.5,11.6C22,58.9,15.9,54,14.6,48.4 M71.9,31.6c1.8,0.6,3.2,1,5.3,3.3c-1.5-3.5-10.1-7.5-14-11.3c1.2,0.2,6,0.4,8-1
		c-3.6,1-11.7-0.1-14.7-2.2c2.1,3,6.7,3.2,12.3,9.2c-0.7-0.6-1.7-1.1-2.5-1.5c3.1,3.3,1.7,5.2,1.1,5.8c1.1-0.2,2.8-1.7,2.5-3.1
		c0.4,0.4,0.7,0.9,1.1,1.4c0.8,1,1.4,2,2,3c0.9,2.8-0.8,5.6-3.7,6.9c3.2-0.5,4.7-3.3,4.7-5.2c1.5,2.9,2.3,5.6,2.2,7.8
		c0,0.8-0.1,1.6-0.2,2.3c-0.7,1.4-1.9,1.9-4,2.2c1.9,0.1,2.9,0,3.8-0.8c-1.3,5.6-7.5,10.5-10,14.7c2.5-3.3,7.7-8.1,9.5-11.6
		c0.1,1.3-0.2,4.5-1.8,6.5c2.3-2.3,2.5-5.7,2.3-7.8c0.6-1.5,1-3.1,1-4.9c0.1-1.7-0.1-3.2-0.3-4.5c1.5,2.1,3.6,2.9,4.6,6.1
		c-0.2-4.1-3.3-4.2-5.5-9.1C74.6,35.6,73.3,33.7,71.9,31.6 M81.8,40.8c1.8,0.3,3.2,0.3,3.9-1.5c-6.6-3.1-6.6-9.8-14.2-13.2
		c4.2-3.1,3.1-6,1.1-8.9c-2.1,3.6-5.6,4.1-7.8,2.9c3.1-1.1,4.2-4.9,6.1-6c-1.2-1.2-2.6-1.3-4.4-0.1c-0.9-2.5-4-1.7-4.5-1.7
		c0.8,0.8,1.6,1.9,1.4,3c-0.3,2.5-4.4,2.1-4.4,2.1c0.8-1.7,0.5-2.7-1.4-3.6c-0.6,1.4-4.9,3.2-5.2,5.8c-0.4,4.2,4.5,6.7,8.8,9
		c4.8,2.6,3,5.4,1.3,5.5c-1,3,2.7,3.5,4.8,2.3c0,0.4-0.3,2.8-3.5,3c0.3,0.9,0.8,1.2,1.6,1.6c-0.6,0.5-2.5,0.5-3.4,0.5
		c0.1,1.3,1.5,2.3,3.3,2.5c-0.1,0.4-0.9,1-1.6,1.2c1.9,1.9,7,0.6,8-0.4c0.5-0.5,1.1,0.2,0.5,1s-3.1,1.6-5.2,1
		c-0.2,1.2,0.2,1.6,0.5,1.9c0,0-2,0.2-2.6,0.5c0.2,0.9,1.2,1.4,1.5,1.7c-0.3,0.3-0.8,1-0.9,1.5c0.9,0.4,3.5,1.1,4.8-0.4
		c0.6-0.6,1.2-0.2,0.6,0.6c-2,2.7-6.8,2.8-8.5,1.9c0,2.2,0.9,2.6,2,3.5c-3.5,4-1.2,7.5-3.6,11c4.6,0,7.5-2.5,8.3-4.9
		c0.1,0.8,0.5,1.6,1.8,1.8c-0.1-0.9,0.2-1.8,0.6-2.7c0.9,0.8,2.6,0.9,4.8,1c-2.5-4.3,4.6-8.7,1.8-14.5c-0.4-0.9,0.8-1.4,0.9-0.5
		c0.7,5,3.6,6.1,6.1,4.6C84.4,53,84,53,83.6,52.3c1.7,0.4,2.5-0.8,2.9-2.3C82.3,48.4,84.7,44.5,81.8,40.8 M82.2,50.8
		c0.1,0.1,0.3,1.8,1,2.6c-3.3-0.2-1.8-7.1-5.1-5.5c-0.9,0.5-1.2,1.6-0.8,2.4c2.2,4.5-2.8,8.4-2.5,12.3c-1.2,0-2.5,0-3.3-1.7
		c-0.4,0.8-1,2-1.4,3.1l-1-1.7c-0.6,2.8-3.2,5.3-6.7,5.6c1.7-2.6-0.3-6.2,3.7-10.1c-0.5-0.4-1.7-1.2-2.1-1.7c5,0.6,10.1-3.3,7.8-5.2
		c-1.5-1.2-2.2,1.3-4.6,0.9l0.9-0.8L67,49.9c1-0.1,2.1-0.8,2.1-0.8l-0.6-1c5.8,0,6-4.5,3.6-4.6c-1.1-0.1-2.5,2-6.1,1.5
		c0.5-0.6,0.6-1.4,0.9-2c-0.9-0.1-1.9-0.1-2.7-0.5c1.7-0.2,2.2-0.8,3.6-1.9L66.1,40c2.4-1.2,2.3-3.4,2.4-5.6
		c-1.3,0.7-2.8,1.9-4.4,1.3c-0.4-0.1-0.6-0.3-0.6-0.7c2.3-0.9,3.8-4.4-1.7-7.4c-3.5-1.9-12.1-6.1-6.3-10.6c0.8-0.6,1.7-1.2,2.4-1.8
		c0.9,0.7-0.3,2.4-0.6,3.1c0,0,1.9,0.2,2.4,0.2c3,0,6.1-1.8,4.5-5.2c1.2,0.2,1.3,1.4,1.7,2.4c0.8-0.5,2.1-1.6,3.1-1.5
		c-0.8,2.7-4.3,5-7,5.6c2.7,1.5,7.8,2.6,10.5-0.6c1.9,3.6-0.7,5.1-3.3,7c9.8,4.4,8.3,9.4,14.7,13.4c-0.8,0.4-4.5-0.4-4.9-0.4
		c1.4,1.8,2,2.6,2.4,3.4c0.4,0.8,0.6,1.7,0.9,3.7c0.3,1.6,0.9,3.2,2.8,4.2C84.6,52,82.9,50.9,82.2,50.8 M35.8,61.7l1.4-1.2L37,60.1
		c-0.2-0.3-0.1-0.3,0.1-0.4l0.7-0.5c0.2-0.1,0.3-0.1,0.6-0.1l2.2,0.5h-2.3c-0.5,0-0.7,0.2-0.9,0.6l-0.2,0.3l-0.6,1.2
		c-0.2,0.4-0.3,1,0.2,1.6l0.4,0.5l-0.9,1.7H37l0.6-1.2c0,0,0.9-0.8,1.1-1.7c-0.3-0.2-0.4-0.3-0.3-0.6l0.3-0.6
		c0.1-0.2,0.1-0.3,0.4-0.2l2.3,0.5c0.3,0.1,0.7,0.2,1-0.3s0.4-0.4,1.1-0.4l1.2,0.1c1.6,0.2,3.2-0.3,3.9-0.7c0.2,0.5,0.7,0.9,0.9,1.3
		c0.1,0.1,0,0.3-0.1,0.6L48,65.6h2l1.2-2.9c0.1-0.3,0.3-0.5,0.4-0.6l-0.7,3.5h2l0.5-3.5c0.1-0.8,0-1-0.3-1.3
		c-0.8-0.7-0.8-2.2-1.1-3.1c0.1-0.1,0.3-0.1,0.5-0.1c0.4,0,0.8,1.1,1.3,1.9c1,1.4,2.4,3,4,0.8c-0.2-0.3-0.3-0.5-0.5-0.7l-0.4-0.5
		c-0.3-0.3-1.5-1.7-2-2.2c-1.2-1.2-3-1-3.7-0.4c-1.6-0.8-3.3,0-3.7,0l-2.8-0.2c-0.1,0-0.3-0.1-0.5-0.3l0.5-0.2c-0.5-2-1.7-3.7-3.8-4
		c0,0-0.1-0.6-0.4-0.8l-0.6,0.7c-0.2,0-0.4,0.1-0.5,0.1l-2.7-1l2,2.1c0,0-1.1,1.5-1.4,1.8c-0.2,0.3-0.2,0.5,0,0.8l0.4,0.5
		c0.2,0.3,0.4,0.3,0.8,0.1l0.4-0.2c0.2-0.2,0.8,0.2,1.1-0.1c-0.2,0.6-0.3,1.1-0.3,1.6l-1.8-0.2c-0.4-0.1-0.6,0-0.8,0.2l-1.6,1.2
		c-0.5,0.4-0.7,1.1-0.4,1.7L35.8,61.7L35.8,61.7z M50.8,62l-1.2,3h-0.8l1.2-2.9c0.1-0.4-0.1-0.6-0.4-1c0.5,0.3,0.8,0.4,1.3,0.6
		C50.9,61.9,50.9,61.9,50.8,62 M38.9,55.4l-0.4,0.2c-0.2,0.1-0.4,0.2-0.6-0.1l-0.2-0.2c-0.1-0.1-0.1-0.3,0.1-0.5l1.5-1.8L38,52
		l1.8,0.7l0.7-0.8c0.2,0.2,0.1,0.6,0.1,0.6c0.7,0,2.8,1,2.9,3.6c0,0,0.5,0.7,1.1,0.7l3.1,0.2c0.5,0,1.8-1,3.4-0.1
		c0.4-0.3,0.9-0.5,1.3-0.5c1.4-0.1,2.5,0.9,3.3,1.9c0.6,0.7,1.4,1.9,1.4,1.9c-0.3,0.4-0.7,0.5-1,0.4c-0.4-0.2-0.6-0.6-0.7-1
		c-0.2-0.8-1-1.4-1-1.4c0.3,0.5,0.3,1.1,0.5,1.6c-1.2-1.2-1.4-2.7-2.3-2.9c-0.4-0.1-0.8,0.1-1.2,0.5c0.4,1,0.4,2.1,0.8,2.9
		c0.3,0.6,0.4,0.6,0.5,0.7c0.4,0.3,0.2,0.7,0.1,1l-0.5,2.9h-0.8l0.5-2.8c0.2-0.9-2.2-0.9-3.5-2.5c-1,1.2-4,0.9-5.2,0.7
		c-0.5-0.1-1,0-1.3,0.5c-0.2,0.3-0.4,0.2-0.6,0.2l-2.3-0.5c-0.4-0.1-0.6,0-0.8,0.4l-0.5,1c-0.1,0.2-0.1,0.4,0.1,0.6l0.2,0.2
		c-0.1,0.5-0.6,0.8-0.6,0.8L37.2,63c-0.2-0.3-0.3-0.7-0.1-1.1l0.7-1.6c0.1-0.2,0.2-0.4,0.6-0.4h2.9l-0.9-1.4c-0.7-1.1,0.4-3,0.3-3.9
		C40.6,55.8,39.1,55.3,38.9,55.4 M35.8,59l1.4-1c0.2-0.2,0.4-0.3,0.7-0.3l1.9,0.3c0.1,0.5,0.4,0.9,0.4,0.9l-2-0.4
		c-0.3,0-0.4,0-0.6,0.2l-1,0.7c-0.2,0.2-0.2,0.4-0.1,0.6l0.2,0.3L36,60.8l-0.3-0.5C35.4,59.8,35.4,59.4,35.8,59 M41.7,22.3
		c0.7,0.5,2.1,1.1,2.1,1.1v-0.9l-2.9-1.1C40.9,21.4,40.9,21.7,41.7,22.3 M43.8,21.2v-0.9l-3.3-1.2c0,0,0.4,0.4,1.2,1
		C42.4,20.7,43.8,21.2,43.8,21.2 M43.8,19.3v-0.9l-3.6-1.3c0,0,0.7,0.6,1.5,1.1C42.4,18.7,43.8,19.3,43.8,19.3 M53.9,31.2h3.7
		c-0.2-0.5-0.7-1.1-1.8-1.1S54.1,30.7,53.9,31.2 M50,17.1l-3.6,1.3v0.9c0,0,1.3-0.5,2.1-1.1C49.3,17.6,50,17.1,50,17.1 M49.3,21.4
		l-2.9,1.1v0.9c0,0,1.3-0.5,2.1-1.1C49.3,21.7,49.3,21.4,49.3,21.4 M49.7,19.2l-3.3,1.2v0.9c0,0,1.3-0.5,2.1-1.1
		C49.3,19.6,49.7,19.2,49.7,19.2 M34.4,30.1c-1.1,0-1.6,0.5-1.8,1.1h3.7C36.1,30.7,35.5,30.1,34.4,30.1"/>
	<path class="st1" d="M52.4,14.7c0-2.1-3.5-3.9-7.3-3.9s-7.3,1.9-7.3,3.9l0.1,0.5l1.5,8.8l-7.2,4.2c-0.8,0.5-1.7,1.7-1.9,3h1.3
		c0.2-1.3,1.2-2.6,3.1-2.6c1.7,0.1,2.7,1.1,3.6,2.6l0.3,0.4l0.4,0.6H28.3c0.8,1.6,1.5,3.2,1.5,5v22.1c0,5.7,4.4,8.4,9.1,8.4
		c3.7,0,4.1-0.2,6.2,1.9c2-2,2.5-1.9,6.2-1.9c4.7,0,9.1-2.7,9.1-8.4V37.2c0-1.8,0.7-3.5,1.5-5H51.2l0.4-0.6l0.3-0.4
		c1-1.4,2-2.5,3.6-2.6c1.8-0.1,2.8,1.3,3.1,2.6h1.3c-0.1-1.3-1.1-2.5-1.9-3L50.8,24l1.5-8.8C52.3,15.2,52.4,14.7,52.4,14.7z
		 M39.3,15.7l5.4,1.8V26l-4-2.1L39.3,15.7z M40.6,33.6c0.7,1,1.9,1.7,3.2,2c0.1,0.5,0.4,1.1,0.9,1.5c-0.2,1.5,0.4,2.9,2,3.3
		c0.2,0.8,0.6,1.3,1.4,1.6L47,43.3c-0.4,0.5-1,0.7-1.5,0.6l-5-0.6c0.2-0.6-0.4-1.2-2-0.9l2-5.5l-1.2-2.6l-2.3,2v5.8l-1-0.5
		c-1.3-0.6-1.7,1.8-0.4,1.8h0.5c0,0.2,0,0.5,0.2,0.6c-0.2,0.1-0.3,0.5,0,0.7c-0.3,0.1-0.3,0.6-0.1,0.8c-0.3,0.4-0.3,1.4,0.6,1.6
		c0.7,0.2,1.2-0.6,1.3-1l7.8,2.4c1.1,0.3,1.9,0.1,2.8-0.7l2-1.8c-0.3,1.2,0.2,2.2,1.1,2.6c0,0-0.1,1-0.1,1.5H31.3V37.2
		c0-1.2-0.3-2.4-0.8-3.5h10.1L40.6,33.6L40.6,33.6z M49,38.5c-0.4,0.8-0.4,1.8,0.1,2.6l-0.3,0.3c-1.5-0.2-2.1-2.4-2.1-2.4v0.6
		c-0.9-0.3-1.4-1.1-1.4-2.1c0.3,0.2,0.7,0.3,1.1,0.4l0.1-0.6c-1-0.2-1.6-0.8-1.9-1.6h-0.1h0.6c0.6,0,1.2-0.1,1.7-0.3
		c0.4,0.6,1.2,1,1.9,1.1C48.7,37.1,48.7,37.8,49,38.5 M51.2,44.3c-0.1,0.2-0.3,0.4-0.3,0.7l-0.8,0.8c0.2-1.2-0.6-2.6-1.4-3.2
		l0.9-0.9l0.2,0.2C49.4,42.7,50,44.2,51.2,44.3 M47.3,44l0.7-0.7c0.7,0.6,1.6,1.9,1.3,3.2l-0.7,0.7c-0.1,0.1-0.3,0.3-0.5,0.4
		C48.5,46.4,47.9,44.7,47.3,44 M45.8,44.5c0.3,0,0.5,0,0.8-0.1c0.5,0.7,0.9,2.4,0.3,3.5c-0.3,0-0.7-0.1-1-0.1l-0.3-0.1
		C46.1,46.9,46,45.4,45.8,44.5 M44.1,44.3l1,0.1c0.1,0.8,0.1,2.2-0.5,2.9L43.5,47C44,46.4,44.2,45,44.1,44.3 M42.1,44.1l1.2,0.1
		c0.1,0.6-0.1,2-0.5,2.6l-1.2-0.3C42,45.9,42.2,44.8,42.1,44.1 M37.4,43.8c-0.5,0.2-0.8-0.2-0.8-0.5c1.1-0.4,1.5-0.1,1.8,0.1
		c0.3,0.2,0.5,0.7,0.9,1c-0.1,0.4-0.2,1.1-0.4,1.5c-1.1-0.3-1.1-1.2-0.7-1.8C38.1,43.7,37.9,43.6,37.4,43.8 M36.7,45.9
		c0,0,0.3,0.1,0.7,0.2c0,0.2-0.2,0.4-0.5,0.4C36.7,46.4,36.6,46.1,36.7,45.9 M35.6,42.8c-0.3-0.2-0.1-0.6,0.1-0.6
		c0.3,0,0.8,0.4,1.2,0.6C36.9,42.8,35.8,42.9,35.6,42.8 M36.7,45c0.2,0.2,0.9,0.1,0.9,0.1v0.1C37.4,45.7,36.5,45.5,36.7,45
		 M37.6,44.6c-0.5,0.2-1-0.1-0.9-0.4c0.2,0.2,0.9,0.1,0.9,0.1S37.6,44.6,37.6,44.6z M38.4,38.7l-1,3.5l0.3-5.6l1.5-1.3L40,37
		l-1.9,5.5l0.5-3.7C38.6,38.5,38.4,38.5,38.4,38.7 M38.5,43c0,0,1.1-0.1,1.4,0.1c0.2,0.1,0.1,0.5-0.2,0.4C39.3,43.4,38.5,43,38.5,43
		 M40.1,43.8l1.2,0.1c0.1,0.6-0.1,1.7-0.5,2.3L39.7,46C40,45.2,40,44.6,40.1,43.8 M58.8,59.3c0,2.7-1.2,4.7-3.3,5.9l0.7-1.5h-0.7
		l-1,1.9c-1,0.4-2.1,0.6-3.3,0.6c-3.8,0-4.8,0.2-6.2,1.5c-1.4-1.4-2.4-1.5-6.2-1.5c-1.2,0-2.3-0.2-3.3-0.6l1-1.9h-0.7L35,65.3
		L34.4,65l0.7-1.4h-0.7l-0.5,1c-1.6-1.2-2.6-3.1-2.6-5.4v-8.5h27.5V59.3L58.8,59.3z M59.6,33.6c-0.4,1.1-0.8,2.3-0.8,3.5V50h-1.5
		c-0.7-0.7-1.3-2.9-1.3-2.9c-0.4,0.8,0.1,2.4,0.5,2.9h-1.9c-0.5-0.6-0.9-2.9-0.9-2.9c-0.6,0.7-0.2,2.4,0.1,2.9h-1.3
		c-0.1-0.9,0.2-1.9,0.2-1.9c-0.7-0.1-1.4-0.5-1.4-1.2c0.3,0.3,0.5,0.3,0.9,0.3l0.5-0.4c-1.8,0.1-1.9-1.9-0.5-2.9
		c-1.4,0-2.5-0.8-2-2.3c-1-0.5-1.4-2.3-0.6-3C49.1,38,49,36.8,49.3,36c-0.7,0-1.5-0.3-2-0.8h-0.1c0.9-0.4,1.7-0.9,2.2-1.7h10.2
		L59.6,33.6L59.6,33.6z M54.1,27.4c-1.5,0.3-2.8,2.1-3.8,3.7l-0.1,0.2h-1.1v0.2c-0.1,1.3-1.3,3-4,3c-1.2,0-2.2-0.4-2.8-0.9
		c-0.6-0.4-0.9-1-1.1-1.5c-0.1-0.2-0.1-0.4-0.1-0.6v-0.2H40l-0.1-0.2c-1.1-1.6-2.3-3.5-3.8-3.7l4.1-2.4l5,2.7l5-2.7L54.1,27.4
		L54.1,27.4z M49.5,23.9l-4,2.1v-8.4l5.4-1.8L49.5,23.9z M45.1,16.6l-5.9-2.3c0.5-1.2,2.8-2.2,5.9-2.2s5.4,1,5.9,2.2L45.1,16.6z
		 M58.2,42v-0.6c-2,0-2.4-2.4-2.4-2.4C55.2,40.7,56.7,42,58.2,42 M55.7,45.9l-0.2-0.6c-1.7,0.4-2.6-2.2-2.6-2.2
		C52.4,45,54.3,46.4,55.7,45.9 M56.9,43.5c-2,0.3-2.9-2-2.9-2c-0.2,1.3,0.6,2.6,1.9,2.7c-0.3,1.7,1.3,2.5,2.6,1.9l-0.2-0.6
		C57.2,45.9,56.1,44.7,56.9,43.5 M55.7,36.7v-0.6c-2.7-0.6-2.4-2.4-2.4-2.4C52.7,35.4,54.2,36.7,55.7,36.7"/>
	<path class="st1" d="M38.8,63.6l-1,2h0.7l1-2H38.8z M40.2,63.6l-1,2H40l0.9-2H40.2z M46,63.6l-1,2h0.7l1-2H46z M47.4,63.6l-0.9,2
		h0.7l0.9-2H47.4z M44.5,63.6l-0.9,2h0.7l1-2H44.5z M53,65.6h0.7l1-2h-0.8L53,65.6z M41.6,63.6l-0.9,2h0.7l1-2H41.6z M43.1,63.6
		l-1,2h0.8l0.9-2H43.1z M39.8,53.2c-0.1,0-0.2,0.1-0.2,0.3s0.1,0.3,0.2,0.3s0.3-0.1,0.3-0.3C40.1,53.4,40,53.2,39.8,53.2"/>
	<path class="st1" d="M45.1,9.5c3,0,5.3,1,6.6,2c0,0,0.4-2.4,1.7-4.4L51,7.4l-1.2-2.7L47.4,6l-2.3-2.3L42.8,6l-2.4-1.2l-1.3,2.7
		l-2.4-0.3c1.3,2.1,1.7,4.4,1.7,4.4C39.8,10.5,42.1,9.5,45.1,9.5 M39.5,8.4L40.7,6l2.1,1.1l2.3-2.3l2.3,2.3L49.5,6l1.1,2.4L52,8.2
		c-0.4,0.7-0.6,1.3-0.9,2.1c-1.5-0.9-3.8-1.6-6.1-1.6s-4.6,0.7-6.1,1.6c-0.3-0.8-0.5-1.4-0.9-2.1C38,8.2,39.5,8.4,39.5,8.4z
		 M47.5,4.7c0.3,0,0.7-0.2,0.7-0.6c0-0.3-0.5-1.3-0.5-1.3S47,3.7,47,4C46.9,4.4,47.2,4.7,47.5,4.7 M51.4,6.1c0.3,0.2,0.7,0,0.9-0.3
		c0.2-0.3,0.1-1.3,0.1-1.3s-1,0.5-1.2,0.8S51.1,6,51.4,6.1 M42.7,4.7c0.4,0,0.6-0.3,0.6-0.7s-0.8-1.2-0.8-1.2s-0.6,1-0.5,1.3
		C42,4.5,42.3,4.7,42.7,4.7 M38.7,6.1C39.1,6,39.2,5.6,39,5.3s-1.2-0.8-1.2-0.8s-0.1,1,0.1,1.3C38.1,6.2,38.4,6.3,38.7,6.1
		 M85.7,27.6c0.8-0.3,1.5-1.1,1.8-1.8c-2.1-0.3-7.8-2.7-12.4-0.7c1.7-1.6,3.3-1.9,3.4-4.2c0.7,0.5,1.9,0.8,2.6-0.4
		c-0.5-1.4-1.7-0.3-1.9-0.7c-0.2-0.5,1.5,0.2,1.9-1.7c-1.4-0.5-1.8,0.6-2,0.4s0.9-0.7,0.1-2.2c-1.4,0.8-0.7,1.8-1,1.9
		c-0.4,0.1-0.1-1-1.7-0.9c-0.2,1.7,1.5,1.7,1.2,2s-0.7-1-1.9-0.3c0,1.4,1.1,2.1,2.3,1.8c-0.2,2.6-2.6,2.1-4.3,5
		c3.7,1.9,5.4,5.3,7.8,7.6c0.8-0.5,2.1-2.9,2.1-2.9c2.5,1.9,4.3,0,4.3,0C87,29.5,87,28.8,85.7,27.6 M82,28.1
		c0.3,0.6,0.8,2.6-0.5,4.1c-1.4-2.8-3.3-5.2-4.9-6.2c-0.3-0.2,0.2-0.6,1.1-0.7c2.9-0.5,6.3,0.7,7.9,1.1c-0.7,0.6-1.4,0.8-2.1,0.9
		c1.2,1,2,1.8,2.6,2.7C85.1,30.3,84.5,29.6,82,28.1"/>
	<path class="st1" d="M44.4,73.6l-1.6-0.1l-0.2,0.7h0.2c0.1,0,0.1-0.1,0.1-0.2c0,0,0.3-0.1,0.6,0l0.7,0.1c-0.4,0.8-1.5,1.6-1.4,2.2
		c0,0.3,0.3,0.4,0.5,0.3c0.3,0,0.4-0.2,0.5-0.6c0.2-0.8,0.6-1.5,0.9-2.4C44.7,73.6,44.4,73.6,44.4,73.6z M45.5,74.6v-0.5h1.4
		l-0.1-0.6c-0.4,0-1,0.1-1.5,0.1l-0.1,1.1c0.7,0,1.1,0.3,1.1,0.9c0,0.3-0.2,0.7-0.5,0.8h-0.2c-0.1-0.1,0-0.2,0-0.4s-0.2-0.3-0.4-0.3
		s-0.3,0.2-0.3,0.4c0,0.4,0.6,0.5,0.9,0.5c0.6,0,1.2-0.3,1.2-1C47.1,74.8,46.2,74.6,45.5,74.6 M48.6,73.5c-0.5,0-0.9,0.4-0.9,0.9
		c0,0.8,0.9,1.1,1.5,0.8c0.1,0.6,0,1.1-0.3,1.1c-0.2,0-0.2-0.2-0.2-0.3c-0.1-0.2-0.2-0.3-0.4-0.2C48,75.8,48,76,48,76.1
		c0.1,0.3,0.5,0.3,0.7,0.3c0.8-0.1,1.2-0.7,1.2-1.4C49.9,74.2,49.4,73.5,48.6,73.5 M48.9,75c-0.5,0-0.6-0.8-0.6-1.2
		c0-0.1,0.1-0.3,0.2-0.3c0.5,0,0.6,1.1,0.6,1.4C49.1,75,49,75,48.9,75"/>
	<path class="st1" d="M41.6,73.3c-0.1,0.1-0.4,0.5-1.2,1.1l0.1,0.1c0.1,0,0.2-0.1,0.4-0.2l-0.4,1.5c0,0.1-0.1,0.1-0.2,0.1H40v0.2
		l1.4,0.3v-0.2l-0.2-0.1c-0.1,0-0.1-0.1-0.1-0.2l0.7-2.6C41.8,73.3,41.6,73.3,41.6,73.3z M57.9,71.3v-3.2c-2.4,1.1-5.6,2-9.6,2.4
		l-0.2,1.1c0.3,0,0.8,0.1,1.3,0.1C47.9,71.9,46,72,44.9,72s-3-0.1-4.5-0.3c0.6,0,1-0.1,1.3-0.1l-0.2-1.1c-4-0.4-7.1-1.3-9.6-2.4v3.2
		l-3.3,1.4c2.5,1.3,5.3,2.3,8.6,3.2l-0.4,1.3c1.9,0.5,4.9,1.1,8,1.1s6.1-0.6,8-1.1l-0.4-1.3c3.3-0.8,6.1-1.9,8.6-3.2
		C61,72.7,57.9,71.3,57.9,71.3z M30.7,72.8l2.2-0.9v-2.6c1.4,0.6,3.3,1.1,6,1.7l-1.3,4.1C34.9,74.5,32.6,73.6,30.7,72.8 M45.1,77.5
		c-2.5,0-5-0.4-7.1-0.9l1.3-4.3c0.9,0.2,3.1,0.5,5.8,0.5c2.6,0,4.9-0.3,5.8-0.5l1.3,4.3C50.1,77.2,47.6,77.5,45.1,77.5 M52.5,75.1
		L51.2,71c2.7-0.6,4.6-1.1,6-1.7v2.6l2.2,0.9C57.6,73.6,55.3,74.5,52.5,75.1 M6.6,30.4c0,0,1.3,2.4,2.1,2.9c2.3-2.3,4-5.7,7.8-7.6
		c-1.8-2.9-4.2-2.4-4.3-5c1.1,0.3,2.2-0.4,2.3-1.8c-1.2-0.7-1.6,0.6-1.9,0.3c-0.3-0.3,1.4-0.3,1.2-2c-1.6,0-1.3,1.1-1.7,0.9
		c-0.3-0.1,0.4-1-1-1.9c-0.8,1.5,0.3,1.9,0.1,2.2c-0.2,0.3-0.7-0.9-2-0.4c0.4,1.8,2.1,1.1,1.9,1.7c-0.2,0.4-1.4-0.8-1.8,0.7
		c0.7,1.2,1.9,0.9,2.6,0.4c0.1,2.4,1.7,2.6,3.4,4.2C10.7,23.1,5,25.4,2.9,25.7c0.3,0.7,1,1.5,1.8,1.8c-1.3,1.2-1.3,1.9-2.2,2.8
		C2.3,30.4,4.1,32.3,6.6,30.4 M4,30c0.6-0.9,1.5-1.8,2.6-2.7c-0.8-0.1-1.4-0.3-2.1-0.9c1.6-0.4,5-1.6,7.9-1.1
		c0.9,0.1,1.5,0.5,1.1,0.7c-1.6,1-3.5,3.4-4.9,6.2c-1.2-1.5-0.7-3.5-0.4-4.1C5.7,29.6,5.1,30.3,4,30"/>
	<path class="st1" d="M43.1,28.6V30c0.5-0.6,1.4-0.5,1.4-0.5v2c0,0,0,1-0.4,1.4h2c-0.3-0.4-0.4-1.4-0.4-1.4v-2c0,0,0.9-0.1,1.4,0.5
		v-1.4C47.1,28.6,43.1,28.6,43.1,28.6z"/>
</g>
<path class="st0" d="M89.1,29.2c-0.2-0.3-0.4-0.5-0.6-0.8c-0.1-0.2-0.2-0.3-0.3-0.5c0.3-0.4,0.6-0.9,0.9-1.4l0.9-2l-2.2-0.3
	c-0.4-0.1-1-0.2-1.7-0.4c-1.4-0.4-3.1-0.8-5-1c0.6-0.3,1.2-0.8,1.6-1.5l0.4-0.7c0,0-0.1-0.9-0.5-1.2l0.3-0.9l0.3-1.5l-1.4-0.5
	c-0.2-0.1-0.4-0.1-0.7-0.2c-0.1-0.3-0.2-0.6-0.4-0.8L79.9,14l-1.5,0.9c-0.4,0.2-0.7,0.5-1,0.8c-0.2,0-0.5-0.1-0.7-0.1
	c0,0-0.9-0.1-1.8,0.2l-1.2-1.3L72.2,13c-1.3-1.4-3.2-1.9-5-1.2c-0.7-0.7-1.8-1.3-3.5-1.3c-0.6,0-1.1,0.1-1.4,0.1
	c0,0-2.4,0.4-3.7,1.7L57,11.5c-1.1,1.7-2.9,2.2-2.9,2.2c-0.1-0.5-0.3-1-0.7-1.4l0.1-0.6c0,0,0.4-2.1,1.5-3.8l1.9-3l-2.7,0.3v-1
	L53.8,2l-2.1,1l-0.6,0.3l-0.4-0.9l-1,0.5c-0.1-0.2-0.2-0.5-0.4-0.8L48.1,0l-1.6,1.7c-0.2,0.2-0.3,0.3-0.4,0.5l-1-1l-1,1
	C44,2,43.8,1.9,43.7,1.7L42.1,0L41,2.1c-0.2,0.3-0.3,0.6-0.4,0.8l-1-0.5l-0.4,0.9C39,3.2,38.8,3.1,38.5,3l-2.2-1l-0.2,2.3v1L33.4,5
	l1.9,3c1.1,1.7,1.5,3.8,1.5,3.8l0.1,0.6c-0.3,0.4-0.5,0.9-0.7,1.4c0,0-1.7-0.7-2.9-2.2l-1.7,0.8c-1.9-1.3-3.1-1.8-5.1-1.8
	c-1.7,0-2.8,0.6-3.5,1.3c-1.9-0.7-3.7-0.3-5,1.2c0,0-0.9,1-1.4,1.5c-0.6,0.6-1.4,1.1-1.4,1.1s-1.2-0.3-2.4,0c-0.3-0.3-0.6-0.5-1-0.8
	L10.3,14l-0.8,1.5c-0.2,0.3-0.3,0.6-0.4,0.8c-0.2,0-0.4,0.1-0.7,0.2L7.1,17l0.3,1.5c0.1,0.3,0.2,0.7,0.3,0.9
	c-0.1,0.2-0.2,0.3-0.2,0.5l-0.2,0.7l0.4,0.7c0.4,0.7,0.9,1.2,1.6,1.5c-1.9,0.2-3.6,0.7-5,1C3.6,24,3,24.1,2.6,24.2l-2.2,0.3l0.5,1.1
	l0.4,0.9c0.2,0.5,0.5,1,0.9,1.4c-0.1,0.2-0.7,1.1-0.9,1.3L0,30.4l1.1,1.2C1.2,31.7,2.4,33,4.4,33c0.5,0,1.1-0.1,1.6-0.3
	c0.5,0.8,1.1,1.6,1.7,2c-1,1.2-2.2,2.3-3.9,3.1l-1.4,0.7L3,40.1c0.4,1,1.2,2,2.6,2.4c-0.3,0.9-0.5,1.8-0.6,2.6
	c-0.3,1.9-0.5,2.7-2.1,3.3L1.4,49l0.4,1.5c0.3,1.2,0.9,2.1,1.4,2.6l-1,1.1c0,0,2.4,1.8,4.7,2c0,0,2,0.1,2.9-1
	c0.4,1.3,0.9,2.5,1.4,3.5c1,2.2,1.6,3.5,0.9,4.7l-1.6,2.7l3.1-0.1c1.4-0.1,2.6-0.1,3.7-0.4v0.2L17,68.1l2.7-0.6
	c0.3-0.1,0.6-0.2,0.8-0.3c1.7,2,4.6,3.5,8.4,3.5h0.2l-4.5,1.8l3.2,1.7c2.1,1.1,4.5,2,7.2,2.8v1.3l1.6,0.5c0.9,0.3,4.3,1.2,8.5,1.2
	s7.5-0.9,8.5-1.2l1.6-0.5L54.8,77c2.7-0.8,5.1-1.7,7.2-2.8l3.2-1.7l-4.5-1.8h0.2c3.9,0,6.8-1.5,8.4-3.5c0.2,0.1,0.5,0.2,0.8,0.3
	l2.7,0.6l-0.3-2.3v-0.2c1.1,0.3,2.4,0.4,3.7,0.4l3.1,0.1L78,63.4c-0.7-1.2-0.1-2.5,0.9-4.7c0.5-1.1,1.1-2.3,1.4-3.5
	c0.6,0.5,1.2,0.7,1.9,0.9l1,0.2c1.4,0,2.1-0.4,3-0.9l1.7-1.1l-1-1.1c0.6-0.5,1.1-1.4,1.4-2.6l0.4-1.5l-1.5-0.5
	c-1.7-0.6-1.8-1.4-2.1-3.3c-0.1-0.8-0.3-1.7-0.6-2.6c1.5-0.4,2.2-1.5,2.6-2.4l0.6-1.6L86.3,38c-1.7-0.8-2.9-1.9-3.9-3.1
	c0.6-0.4,1.2-1.2,1.7-2c0.5,0.2,1,0.3,1.6,0.3c2,0,3.2-1.3,3.3-1.4l1.1-1.2L89.1,29.2L89.1,29.2z"/>
<path class="st2" d="M31.3,50.1V37.2c0-1.2-0.3-2.4-0.8-3.5h10c0.9,1.3,2.6,2.1,4.5,2.1s3.6-0.8,4.5-2.1h10
	c-0.4,1.1-0.8,2.3-0.8,3.5v12.9H31.3z M45.1,67.7c-1.4-1.4-2.4-1.5-6.2-1.5c-4.5,0-7.6-2.6-7.6-6.9v-8.5h27.5v8.5
	c0,4.2-3.1,6.9-7.6,6.9C47.5,66.2,46.5,66.3,45.1,67.7"/>
<path class="st0" d="M32.9,69.3v2.6l-2.2,0.9c1.9,0.9,4.2,1.7,7,2.3L39,71C36.3,70.4,34.4,69.9,32.9,69.3 M45.1,72.8
	c-2.6,0-4.9-0.3-5.8-0.5L38,76.7c2.1,0.5,4.6,0.9,7.1,0.9s5-0.4,7.1-0.9l-1.3-4.3C50,72.5,47.7,72.8,45.1,72.8"/>
<path class="st0" d="M57.2,69.3c-1.4,0.6-3.3,1.1-6,1.7l1.3,4.1c2.8-0.6,5.1-1.5,7-2.3l-2.2-0.9C57.3,71.9,57.2,69.3,57.2,69.3z
	 M28.3,27.7c3.5-1.9,12.1-6.1,6.3-10.5c-0.8-0.6-1.7-1.2-2.4-1.8c-0.9,0.7,0.3,2.4,0.7,3.1c0,0-1.9,0.2-2.4,0.2
	c-3,0-6.1-1.8-4.5-5.2c-1.2,0.2-1.3,1.4-1.7,2.4c-0.8-0.5-2.1-1.6-3.1-1.5c0.8,2.7,4.3,5,7,5.6c-2.7,1.5-7.8,2.6-10.5-0.6
	c-1.9,3.6,0.7,5.1,3.3,7c-9.7,4.4-8.3,9.4-14.7,13.4c0.8,0.4,4.5-0.4,4.9-0.4c-1.4,1.8-2,2.6-2.4,3.4c-0.4,0.8-0.6,1.7-0.9,3.7
	c-0.3,1.6-0.9,3.2-2.8,4.2C5.6,52,7.3,50.9,8,50.8c-0.1,0.1-0.3,1.8-1,2.6c3.3-0.2,1.8-7.1,5-5.5c0.9,0.5,1.2,1.6,0.8,2.4
	c-2.2,4.5,2.7,8.4,2.5,12.3c1.2,0,2.5,0,3.2-1.7c0.4,0.8,1,2,1.4,3.1l1-1.7c0.6,2.8,3.2,5.3,6.7,5.6c-1.7-2.6,0.3-6.2-3.7-10
	c0.5-0.4,1.7-1.2,2.1-1.7c-5,0.6-10.1-3.3-7.8-5.2c1.5-1.2,2.2,1.3,4.6,0.9L21.9,51l1.1-1.1c-1-0.1-2.1-0.8-2.1-0.8l0.6-1
	c-5.8,0-6-4.5-3.6-4.6c1.1-0.1,2.5,2,6.1,1.5c-0.5-0.6-0.6-1.4-0.9-2c0.9,0,1.9,0,2.7-0.4c-1.7-0.2-2.2-0.8-3.6-1.9l1.7-0.6
	c-2.4-1.2-2.3-3.4-2.4-5.6c1.3,0.7,2.8,1.9,4.4,1.3c0.4-0.1,0.6-0.3,0.6-0.7C24.2,34.2,22.8,30.7,28.3,27.7 M24.1,28.1
	c-3.1,3.3-1.7,5.2-1.1,5.8c-1.1-0.2-2.8-1.7-2.5-3.1c-0.4,0.4-0.7,0.9-1.1,1.4c-0.8,1-1.4,2-2,3c-0.9,2.8,0.8,5.6,3.7,6.9
	c-3.2-0.5-4.7-3.3-4.7-5.2c-1.5,2.9-2.3,5.6-2.2,7.8c0,0.8,0.1,1.6,0.2,2.3c0.7,1.4,1.9,1.9,4,2.2c-1.9,0.1-2.9,0-3.8-0.8
	c1.3,5.6,7.4,10.5,9.9,14.7C22,59.8,16.8,55,15,51.5c-0.1,1.3,0.2,4.5,1.8,6.5c-2.3-2.3-2.5-5.7-2.3-7.8c-0.6-1.5-1-3.1-1-4.9
	c0-1.7,0.1-3.2,0.3-4.5c-1.5,2.1-3.6,2.9-4.6,6.1c0.2-4.1,3.3-4.2,5.5-9.1c0.9-2.2,2.2-4,3.6-6.2c-1.8,0.6-3.2,1-5.3,3.3
	c1.5-3.5,10.1-7.5,14-11.3c-1.2,0.2-6,0.4-8-1c3.6,1,11.7-0.1,14.7-2.2c-2.1,3-6.7,3.2-12.3,9.2C22.3,29.1,23.2,28.5,24.1,28.1
	 M82.5,46.5c-0.4-2-0.6-2.9-0.9-3.7c-0.4-0.9-1.1-1.6-2.4-3.4c0.3,0,4,0.8,4.9,0.4c-6.4-3.9-5-8.9-14.7-13.4c2.6-1.9,5.2-3.4,3.3-7
	C70,22.6,65,21.5,62.2,20c2.7-0.5,6.2-2.9,7-5.6c-1-0.2-2.3,1-3.1,1.5c-0.4-1-0.5-2.1-1.7-2.4c1.6,3.4-1.5,5.2-4.5,5.2
	c-0.5,0-2.4-0.2-2.4-0.2c0.3-0.6,1.6-2.4,0.6-3.1c-0.7,0.7-1.6,1.2-2.4,1.8c-5.8,4.5,2.8,8.7,6.3,10.5c5.5,3,4,6.5,1.7,7.4
	c0,0.4,0.3,0.6,0.6,0.7c1.6,0.5,3.1-0.6,4.4-1.3c-0.1,2.2,0.1,4.3-2.4,5.6l1.7,0.6c-1.5,1.1-1.9,1.7-3.6,1.9
	c0.8,0.4,1.8,0.4,2.7,0.5c-0.2,0.6-0.4,1.4-0.9,2c3.6,0.4,5-1.6,6.1-1.5c2.4,0.2,2.2,4.6-3.6,4.6l0.6,1c0,0-1.1,0.6-2.1,0.8
	c0.4,0.3,0.8,0.7,1.1,1.1l-0.9,0.8c2.4,0.4,3-2.1,4.6-0.9c2.3,1.9-2.8,5.8-7.8,5.2c0.4,0.5,1.6,1.3,2.1,1.7c-4,3.8-2.1,7.4-3.7,10
	c3.5-0.2,6.1-2.8,6.7-5.6l1,1.7c0.4-1.1,1-2.2,1.4-3.1c0.8,1.6,2,1.7,3.3,1.7c-0.3-3.9,4.6-7.8,2.5-12.3c-0.4-0.9-0.2-2,0.8-2.4
	c3.3-1.7,1.8,5.3,5.1,5.5c-0.6-0.8-0.9-2.4-1-2.6c0.7,0.2,2.4,1.2,3.1-0.1C83.4,49.6,82.8,48,82.5,46.5 M76.4,40.8
	c0.3,1.3,0.4,2.8,0.3,4.5c-0.1,1.8-0.4,3.5-1,4.9c0.1,2,0,5.5-2.3,7.8c1.6-2,1.9-5.2,1.8-6.5c-1.8,3.5-7,8.3-9.5,11.6
	c2.5-4.2,8.6-9.1,10-14.7c-0.8,0.9-1.9,1-3.8,0.8c2.1-0.3,3.3-0.8,4-2.2c0.1-0.7,0.2-1.5,0.2-2.3c0.1-2.2-0.7-4.9-2.2-7.8
	c0,1.8-1.4,4.7-4.7,5.2c2.9-1.3,4.6-4.1,3.7-6.9c-0.6-1-1.3-2-2-3c-0.4-0.5-0.8-1-1.1-1.4c0.4,1.4-1.3,2.9-2.5,3.1
	c0.6-0.6,1.9-2.6-1.1-5.8c0.9,0.4,1.8,1,2.5,1.5c-5.6-6-10.1-6.2-12.3-9.2c3.1,2.1,11.1,3.2,14.7,2.2c-2,1.3-6.8,1.2-8,1
	c3.9,3.8,12.5,7.8,14,11.3c-2.1-2.3-3.4-2.7-5.2-3.3c1.4,2.1,2.7,4,3.6,6.2c2.3,5,5.3,5,5.5,9.1C80,43.7,77.9,42.9,76.4,40.8"/>
<path class="st0" d="M49.6,33.7c-0.9,1.3-2.6,2.1-4.5,2.1c-0.4,0-0.9,0-1.3-0.1c0.1,0.5,0.4,1.1,0.9,1.5c-0.2,1.5,0.4,2.9,2,3.3
	c0.2,0.8,0.6,1.4,1.5,1.6l-1.1,1.3c-0.4,0.5-1,0.7-1.5,0.6l-5-0.6c0.2-0.6-0.4-1.2-2-0.9l2-5.5l-1.2-2.6l-2.3,2L37,42.1l-1-0.5
	c-1.3-0.6-1.6,1.8-0.4,1.8h0.5c0,0.2,0,0.5,0.2,0.6c-0.2,0.1-0.3,0.5,0,0.7c-0.3,0.1-0.3,0.6-0.1,0.8c-0.2,0.4-0.3,1.4,0.6,1.6
	c0.7,0.2,1.2-0.6,1.3-1l7.8,2.4c1.1,0.3,1.9,0.1,2.8-0.7l2-1.8c-0.3,1.2,0.2,2.2,1.1,2.6c0,0-0.1,1.1-0.1,1.5h7V37.2
	c0-1.2,0.3-2.4,0.8-3.5H49.6z M37.8,55.4l0.2,0.2c0.2,0.3,0.3,0.2,0.6,0.1l0.4-0.2c0.2-0.2,1.7,0.4,1.8-0.8c0.2,0.9-0.9,2.8-0.3,3.9
	l0.9,1.4h-2.9c-0.3,0-0.5,0.2-0.6,0.4L37.2,62c-0.2,0.4-0.2,0.8,0.1,1.1l0.5,0.6c0,0,0.4-0.4,0.5-0.8L38,62.5
	c-0.2-0.2-0.2-0.3-0.1-0.6l0.5-1c0.2-0.4,0.4-0.5,0.8-0.4l2.3,0.5c0.2,0,0.4,0.1,0.6-0.2c0.3-0.5,0.8-0.5,1.3-0.5
	c1.3,0.2,4.2,0.5,5.2-0.7c1.2,1.6,3.6,1.6,3.5,2.5l-0.5,2.8h0.8l0.5-2.9c0.1-0.3,0.3-0.8-0.1-1c-0.1-0.1-0.2-0.2-0.5-0.7
	c-0.4-0.8-0.4-1.9-0.8-2.9c0.4-0.5,0.8-0.6,1.2-0.5c0.8,0.2,1.1,1.7,2.3,2.9c-0.1-0.5-0.2-1.1-0.5-1.6c0,0,0.8,0.6,1,1.4
	c0.1,0.5,0.3,0.8,0.7,1c0.3,0.1,0.6,0,1-0.4c0,0-0.8-1.1-1.4-1.9c-0.8-1-1.9-2-3.3-1.9c-0.5,0-0.9,0.2-1.3,0.5
	C49.4,56,48.1,57,47.6,57l-3.1-0.2c-0.6,0-1.1-0.7-1.1-0.7c-0.1-2.6-2.2-3.6-2.9-3.6c0,0,0.1-0.5-0.1-0.6l-0.6,0.8L38,52l1.4,1.1
	l-1.5,1.8C37.7,55,37.8,55.3,37.8,55.4"/>
<path class="st0" d="M35.8,59c-0.4,0.3-0.4,0.8-0.2,1.3l0.3,0.5l0.7-0.5L36.4,60c-0.1-0.2-0.1-0.5,0.1-0.6l1-0.7
	c0.3-0.2,0.4-0.2,0.6-0.2l2,0.4c0,0-0.3-0.4-0.4-0.9l-1.9-0.3c-0.3,0-0.4,0.1-0.7,0.3L35.8,59z M48.8,65.1h0.8l1.2-3
	c0-0.1,0.1-0.2,0.1-0.2c-0.6-0.2-0.9-0.4-1.3-0.6c0.3,0.4,0.6,0.6,0.4,1L48.8,65.1z M49.5,23.9l1.4-8.2l-5.4,1.8V26L49.5,23.9z
	 M46.4,18.4l3.6-1.3c0,0-0.7,0.6-1.5,1.1c-0.7,0.5-2.1,1.1-2.1,1.1S46.4,18.4,46.4,18.4z M46.4,20.4l3.3-1.2c0,0-0.4,0.4-1.2,1
	c-0.7,0.5-2.1,1.1-2.1,1.1S46.4,20.4,46.4,20.4z M46.4,22.5l2.9-1.1c0,0,0,0.4-0.8,0.9c-0.7,0.5-2.1,1.1-2.1,1.1V22.5z M39.9,31.2
	l0.1,0.2h1.1v0.2c0,0.2,0.1,0.4,0.1,0.6c0.2,0.5,0.5,1.1,1.1,1.5c0.6,0.5,1.6,0.9,2.8,0.9c2.7,0,3.9-1.7,4-3v-0.2h1.1l0.1-0.2
	c1-1.6,2.3-3.5,3.8-3.7L50,25.1l-5,2.7l-5-2.7l-4.1,2.4C37.5,27.7,38.8,29.5,39.9,31.2"/>
<path class="st0" d="M44.7,26v-8.5l-5.4-1.8l1.4,8.2L44.7,26z M43.8,23.4c0,0-1.3-0.5-2.1-1.1c-0.8-0.6-0.8-0.9-0.8-0.9l2.9,1.1
	V23.4z M43.8,18.4v0.9c0,0-1.3-0.5-2.1-1.1c-0.8-0.6-1.5-1.1-1.5-1.1S43.8,18.4,43.8,18.4z M43.8,20.4v0.9c0,0-1.3-0.5-2.1-1.1
	c-0.8-0.6-1.2-1-1.2-1S43.8,20.4,43.8,20.4z M45.1,12.1c-3.1,0-5.4,1-5.9,2.2l5.9,2.3l5.9-2.3C50.5,13.1,48.2,12.1,45.1,12.1
	 M45.1,8.7c2.3,0,4.5,0.7,6.1,1.6c0.2-0.8,0.5-1.4,0.9-2.1l-1.4,0.2L49.5,6l-2.1,1.1l-2.3-2.3l-2.3,2.3L40.7,6l-1.1,2.4l-1.4-0.2
	c0.4,0.7,0.6,1.3,0.9,2.1C40.5,9.4,42.8,8.7,45.1,8.7 M83.6,27.3c0.8-0.1,1.4-0.4,2.1-0.9c-1.6-0.4-5-1.6-7.9-1.1
	c-1,0.1-1.5,0.5-1.1,0.7c1.5,1,3.5,3.4,4.9,6.2c1.2-1.5,0.7-3.5,0.5-4.1c2.4,1.5,3.1,2.2,4.2,1.9C85.6,29.1,84.8,28.3,83.6,27.3
	 M8.6,32.2c1.4-2.8,3.3-5.2,4.9-6.2c0.3-0.2-0.2-0.6-1.1-0.7c-2.9-0.5-6.3,0.7-7.9,1.1c0.8,0.6,1.4,0.8,2.1,0.9
	c-1.2,1-2,1.8-2.6,2.7c1.1,0.3,1.8-0.4,4.2-1.9C7.9,28.7,7.4,30.7,8.6,32.2"/>
<path d="M25.5,58c1.1-0.9,2.1-1.3,2-3.5c-1.7,0.9-6.5,0.8-8.5-1.9c-0.6-0.8,0-1.2,0.6-0.6c1.4,1.5,3.9,0.8,4.8,0.4
	c-0.1-0.5-0.6-1.2-0.9-1.5c0.3-0.3,1.3-0.8,1.5-1.7c-0.5-0.3-2.5-0.5-2.5-0.5c0.3-0.3,0.7-0.8,0.5-1.9c-2.1,0.6-4.6-0.2-5.2-1
	s0-1.5,0.5-1c1,1.1,6.1,2.3,8,0.4c-0.7-0.2-1.5-0.8-1.6-1.2c1.7-0.2,3.1-1.2,3.3-2.5c-1,0-2.8-0.1-3.4-0.5c0.8-0.3,1.4-0.6,1.6-1.6
	c-3.2-0.2-3.5-2.6-3.5-3c2.1,1.2,5.8,0.7,4.8-2.3c-1.7-0.1-3.5-2.9,1.3-5.5c4.3-2.3,9.3-4.9,8.8-9c-0.3-2.7-4.7-4.5-5.2-5.8
	c-1.8,0.9-2.2,1.9-1.4,3.6c0,0-4.1,0.4-4.4-2.1c-0.1-1.1,0.6-2.2,1.4-3c-0.5,0-3.5-0.8-4.5,1.7c-1.7-1.2-3.2-1.1-4.4,0.1
	c1.9,1.1,3,4.9,6.1,6c-2.2,1.2-5.7,0.7-7.8-2.9c-1.9,2.9-3.1,5.8,1.1,8.9c-7.5,3.5-7.4,10.1-14,13.2c0.7,1.8,2.1,1.8,3.9,1.5
	c-2.9,3.8-0.4,7.6-5,9.2c0.4,1.5,1.3,2.7,2.9,2.3C5.8,53,5.5,53,4.8,53.8c2.5,1.6,5.4,0.4,6.1-4.6c0.1-0.9,1.3-0.3,0.9,0.5
	C9,55.6,16.1,60,13.6,64.3c2.2-0.1,3.9-0.3,4.8-1c0.5,0.9,0.7,1.8,0.6,2.7c1.2-0.2,1.7-1,1.8-1.8c0.8,2.3,3.7,4.9,8.3,4.9
	C26.7,65.5,29,62,25.5,58 M21,62.3L20,64c-0.4-1.1-1-2.2-1.4-3.1c-0.8,1.6-2,1.7-3.2,1.7c0.3-3.9-4.6-7.8-2.5-12.3
	c0.4-0.9,0.1-2-0.8-2.4c-3.3-1.7-1.8,5.3-5,5.5c0.6-0.8,0.9-2.4,1-2.6C7.4,51,5.7,52,5,50.7c1.9-1,2.5-2.6,2.8-4.2
	c0.4-2,0.6-2.9,0.9-3.7c0.4-0.9,1.1-1.6,2.4-3.4c-0.3,0-4,0.8-4.9,0.4c6.4-3.9,5-8.9,14.7-13.4c-2.6-1.9-5.2-3.4-3.3-7
	c2.7,3.2,7.7,2.1,10.5,0.6c-2.7-0.5-6.2-2.9-7-5.6c1-0.2,2.3,1,3.1,1.5c0.4-1,0.5-2.1,1.7-2.4c-1.6,3.4,1.5,5.2,4.5,5.2
	c0.5,0,2.4-0.2,2.4-0.2c-0.3-0.6-1.6-2.4-0.7-3.1c0.7,0.7,1.6,1.2,2.4,1.8c5.8,4.5-2.8,8.7-6.3,10.5c-5.5,3-4,6.5-1.7,7.4
	c0,0.4-0.3,0.6-0.6,0.7c-1.6,0.5-3.1-0.6-4.4-1.3c0.1,2.2-0.1,4.3,2.4,5.6l-1.7,0.6c1.5,1.1,1.9,1.7,3.6,1.9C25,43,24,43,23.1,43.1
	c0.2,0.6,0.4,1.4,0.9,2c-3.6,0.4-5-1.6-6.1-1.5c-2.4,0.2-2.2,4.6,3.6,4.6l-0.6,1c0,0,1.1,0.6,2.1,0.8c-0.4,0.3-0.8,0.7-1.1,1.1
	l0.9,0.8c-2.4,0.4-3-2.1-4.6-0.9c-2.3,1.9,2.8,5.8,7.8,5.2c-0.4,0.5-1.6,1.3-2.1,1.7c4,3.8,2,7.4,3.7,10
	C24.2,67.6,21.6,65.1,21,62.3 M14.6,48.4c0.8,0.9,1.9,1,3.8,0.8c-2.1-0.3-3.3-0.8-4-2.2c-0.1-0.7-0.2-1.5-0.2-2.3
	c-0.1-2.2,0.7-4.9,2.2-7.8c0,1.8,1.4,4.7,4.7,5.2c-2.9-1.3-4.6-4.1-3.7-6.9c0.6-1,1.3-2,2-3c0.4-0.5,0.8-1,1.1-1.4
	c-0.4,1.4,1.3,2.9,2.5,3.1c-0.6-0.6-1.9-2.6,1.1-5.8c-0.9,0.4-1.8,1-2.5,1.5c5.6-6,10.2-6.2,12.3-9.2c-3,2.1-11.1,3.2-14.7,2.2
	c2,1.3,6.8,1.2,8,1c-3.9,3.8-12.5,7.8-14,11.3c2.1-2.3,3.4-2.7,5.3-3.3c-1.4,2.1-2.7,4-3.6,6.2c-2.3,5-5.3,5-5.5,9.1
	c1-3.2,3.2-4,4.6-6.1c-0.3,1.3-0.4,2.8-0.3,4.5c0.1,1.8,0.4,3.5,1,4.9c-0.1,2,0,5.5,2.3,7.8c-1.6-2-1.9-5.2-1.8-6.5
	c1.8,3.5,7,8.3,9.5,11.6C22,58.9,15.9,54,14.6,48.4 M71.9,31.6c1.8,0.6,3.2,1,5.2,3.3c-1.5-3.5-10.1-7.5-14-11.3c1.2,0.2,6,0.4,8-1
	c-3.6,1-11.7-0.1-14.7-2.2c2.1,3,6.7,3.2,12.3,9.2C68,29,67,28.5,66.2,28.1c3.1,3.3,1.7,5.2,1.1,5.8c1.1-0.2,2.8-1.7,2.5-3.1
	c0.4,0.4,0.7,0.9,1.1,1.4c0.8,1,1.4,2,2,3c0.9,2.8-0.8,5.6-3.7,6.9c3.2-0.5,4.7-3.3,4.7-5.2c1.5,2.9,2.3,5.6,2.2,7.8
	c0,0.8-0.1,1.6-0.2,2.3c-0.7,1.4-1.9,1.9-4,2.2c1.9,0.1,2.9,0,3.8-0.8c-1.3,5.6-7.4,10.5-10,14.7c2.5-3.3,7.7-8.1,9.5-11.6
	c0.1,1.3-0.2,4.5-1.8,6.5c2.3-2.3,2.5-5.7,2.3-7.8c0.6-1.5,1-3.1,1-4.9c0.1-1.7-0.1-3.2-0.3-4.5c1.5,2.1,3.6,2.9,4.6,6.1
	c-0.2-4.1-3.3-4.2-5.5-9.1C74.6,35.6,73.3,33.7,71.9,31.6 M81.8,40.8c1.8,0.3,3.2,0.3,3.9-1.5c-6.6-3.1-6.6-9.8-14.1-13.2
	c4.2-3.1,3-6,1.1-8.9c-2.1,3.6-5.6,4.1-7.8,2.9c3.1-1.1,4.2-4.9,6.1-6c-1.2-1.2-2.6-1.3-4.4-0.1c-0.9-2.5-4-1.7-4.5-1.7
	c0.8,0.8,1.6,1.9,1.4,3c-0.3,2.5-4.4,2.1-4.4,2.1c0.8-1.7,0.5-2.7-1.4-3.6c-0.6,1.3-4.9,3.2-5.2,5.8c-0.4,4.2,4.5,6.7,8.8,9
	c4.8,2.6,3,5.4,1.3,5.5c-1,3,2.7,3.5,4.8,2.3c0,0.4-0.3,2.8-3.5,3c0.3,0.9,0.8,1.2,1.6,1.6c-0.6,0.5-2.5,0.5-3.4,0.5
	c0.1,1.3,1.5,2.3,3.3,2.5c-0.1,0.4-0.9,1-1.6,1.2c1.9,1.9,7,0.6,8-0.4c0.5-0.5,1.1,0.2,0.5,1s-3.1,1.6-5.2,1
	c-0.2,1.2,0.2,1.6,0.5,1.9c0,0-2,0.2-2.6,0.5c0.2,0.9,1.2,1.4,1.5,1.7c-0.3,0.3-0.8,1-0.9,1.5c0.9,0.4,3.5,1.1,4.8-0.4
	c0.6-0.6,1.2-0.2,0.6,0.6c-2,2.7-6.8,2.8-8.5,1.9c0,2.2,0.9,2.6,2,3.5c-3.5,4-1.2,7.5-3.6,11c4.6,0,7.5-2.5,8.3-4.9
	c0.1,0.8,0.5,1.6,1.8,1.8c-0.1-0.9,0.2-1.8,0.6-2.7c0.9,0.7,2.6,0.9,4.8,1c-2.5-4.3,4.6-8.7,1.8-14.5c-0.4-0.9,0.8-1.4,0.9-0.5
	c0.7,5,3.6,6.1,6.1,4.6c-0.7-0.8-1.1-0.8-1.5-1.5c1.7,0.4,2.5-0.8,2.9-2.3C82.2,48.4,84.7,44.6,81.8,40.8 M82.2,50.8
	c0.1,0.1,0.3,1.8,1,2.6c-3.3-0.2-1.8-7.1-5.1-5.5c-0.9,0.5-1.2,1.6-0.8,2.4c2.1,4.5-2.7,8.4-2.5,12.3c-1.2,0-2.5,0-3.3-1.7
	c-0.4,0.8-1,2-1.4,3.1l-1-1.7c-0.6,2.8-3.2,5.3-6.7,5.6c1.7-2.6-0.3-6.2,3.7-10c-0.5-0.4-1.7-1.2-2.1-1.7c5,0.6,10.1-3.3,7.8-5.2
	c-1.5-1.2-2.2,1.3-4.6,0.9l0.9-0.8L67,50c1-0.1,2.1-0.8,2.1-0.8l-0.6-1c5.8,0,6-4.5,3.6-4.6c-1.1-0.1-2.5,2-6.1,1.5
	c0.5-0.6,0.6-1.4,0.9-2C66,43,65,43,64.2,42.6c1.7-0.2,2.2-0.8,3.6-1.9l-1.7-0.6c2.4-1.2,2.3-3.4,2.4-5.6c-1.3,0.7-2.8,1.9-4.4,1.3
	c-0.4-0.1-0.6-0.3-0.6-0.7c2.3-0.9,3.8-4.4-1.7-7.4c-3.5-1.9-12.1-6.1-6.3-10.5c0.8-0.6,1.7-1.2,2.4-1.8c0.9,0.7-0.3,2.4-0.6,3.1
	c0,0,1.9,0.2,2.4,0.2c3,0,6.1-1.8,4.5-5.2c1.2,0.2,1.3,1.4,1.7,2.4c0.8-0.5,2.1-1.6,3.1-1.5c-0.8,2.7-4.3,5-7,5.6
	c2.7,1.5,7.8,2.6,10.5-0.6c1.9,3.6-0.7,5.1-3.3,7c9.7,4.4,8.3,9.4,14.7,13.4c-0.8,0.4-4.5-0.4-4.9-0.4c1.4,1.8,2,2.6,2.4,3.4
	c0.4,0.8,0.6,1.7,0.9,3.7c0.3,1.6,0.9,3.2,2.8,4.2C84.6,52,82.9,50.9,82.2,50.8 M35.8,61.7l1.4-1.2L37,60.1
	c-0.2-0.3-0.1-0.3,0.1-0.4l0.7-0.5c0.2-0.1,0.3-0.1,0.6-0.1l2.2,0.5h-2.3c-0.5,0-0.7,0.2-0.9,0.6l-0.2,0.3l-0.6,1.2
	c-0.2,0.4-0.3,1,0.2,1.6l0.4,0.5l-0.9,1.7H37l0.6-1.2c0,0,0.9-0.8,1.1-1.7c-0.3-0.2-0.4-0.3-0.3-0.6l0.3-0.6
	c0.1-0.2,0.1-0.3,0.4-0.2l2.3,0.5c0.3,0.1,0.7,0.2,1-0.3s0.4-0.4,1.1-0.4l1.2,0.1c1.6,0.2,3.2-0.3,3.9-0.7c0.2,0.5,0.7,0.9,0.9,1.3
	c0.1,0.1-0.1,0.3-0.1,0.6L48,65.6h2l1.2-2.9c0.1-0.3,0.3-0.5,0.4-0.6l-0.7,3.5h2l0.5-3.5c0.1-0.8,0-1-0.3-1.3
	c-0.8-0.7-0.8-2.2-1.1-3.1c0.1-0.1,0.3-0.1,0.5-0.1c0.4,0,0.8,1.1,1.3,1.9c1,1.4,2.4,3,4,0.8c-0.2-0.3-0.3-0.5-0.5-0.7l-0.4-0.5
	c-0.3-0.3-1.5-1.7-2-2.2c-1.2-1.2-2.9-1-3.7-0.4c-1.6-0.8-3.3,0-3.7,0l-2.8-0.2c-0.1,0-0.3-0.1-0.5-0.3l0.5-0.2
	c-0.5-2-1.7-3.7-3.8-4c0,0-0.1-0.6-0.4-0.8l-0.6,0.7c-0.2,0-0.4,0.1-0.5,0.1l-2.7-1l2,2.1c0,0-1.1,1.5-1.4,1.8
	c-0.2,0.3-0.2,0.5,0,0.8l0.4,0.5c0.2,0.3,0.4,0.3,0.8,0.1l0.4-0.2c0.2-0.2,0.8,0.2,1.1-0.1c-0.2,0.6-0.3,1.1-0.3,1.6l-1.8-0.2
	c-0.4-0.1-0.6,0-0.8,0.2l-1.6,1.2c-0.5,0.4-0.7,1.1-0.4,1.7L35.8,61.7L35.8,61.7z M50.8,62l-1.2,3h-0.8l1.2-2.9
	c0.1-0.4-0.1-0.6-0.4-1c0.5,0.3,0.8,0.4,1.3,0.6C50.9,61.9,50.9,61.9,50.8,62 M38.9,55.4l-0.4,0.2c-0.2,0.1-0.4,0.2-0.6-0.1
	l-0.2-0.2c-0.1-0.1-0.1-0.3,0.1-0.5l1.5-1.8L38,52l1.8,0.7l0.7-0.8c0.2,0.2,0.1,0.6,0.1,0.6c0.7,0,2.8,1,2.9,3.6
	c0,0,0.5,0.7,1.1,0.7l3.1,0.2c0.5,0,1.8-1,3.4-0.1c0.4-0.2,0.9-0.4,1.3-0.5c1.4-0.1,2.5,0.9,3.3,1.9c0.6,0.7,1.4,1.9,1.4,1.9
	c-0.3,0.4-0.7,0.5-1,0.4c-0.4-0.2-0.6-0.6-0.7-1c-0.2-0.8-1-1.4-1-1.4c0.3,0.5,0.3,1.1,0.5,1.6c-1.2-1.2-1.4-2.7-2.3-2.9
	c-0.4-0.1-0.8,0.1-1.2,0.5c0.4,1,0.4,2.1,0.8,2.9c0.3,0.6,0.4,0.6,0.5,0.7c0.4,0.3,0.2,0.7,0.1,1l-0.5,2.9h-0.8l0.5-2.8
	c0.2-0.9-2.2-0.9-3.5-2.5c-1,1.2-4,0.9-5.2,0.7c-0.5-0.1-1,0-1.3,0.5c-0.2,0.3-0.4,0.2-0.6,0.2l-2.3-0.5c-0.4-0.1-0.6,0-0.8,0.4
	l-0.5,1c-0.1,0.2-0.1,0.4,0.1,0.6l0.2,0.2c-0.1,0.5-0.5,0.8-0.5,0.8L37.2,63c-0.2-0.3-0.3-0.7-0.1-1.1l0.7-1.6
	c0.1-0.2,0.2-0.4,0.6-0.4h2.9l-0.9-1.4c-0.7-1.1,0.4-3,0.3-3.9C40.6,55.8,39.1,55.3,38.9,55.4 M35.8,59l1.4-1
	c0.2-0.2,0.4-0.3,0.7-0.3l1.9,0.3c0.1,0.5,0.4,0.9,0.4,0.9l-2-0.4c-0.3,0-0.4,0-0.6,0.2l-1,0.7c-0.2,0.1-0.2,0.4-0.1,0.6l0.2,0.3
	L36,60.8l-0.3-0.5C35.4,59.8,35.4,59.4,35.8,59 M41.7,22.3c0.7,0.5,2.1,1.1,2.1,1.1v-0.9l-2.9-1.1C40.9,21.4,40.9,21.7,41.7,22.3
	 M43.8,21.2v-0.9l-3.3-1.2c0,0,0.4,0.4,1.2,1C42.5,20.7,43.8,21.2,43.8,21.2 M43.8,19.3v-0.9l-3.6-1.3c0,0,0.7,0.6,1.5,1.1
	S43.8,19.3,43.8,19.3 M53.9,31.2h3.7c-0.2-0.5-0.7-1.1-1.8-1.1S54.1,30.7,53.9,31.2 M50,17.1l-3.6,1.3v0.9c0,0,1.3-0.5,2.1-1.1
	C49.3,17.6,50,17.1,50,17.1 M49.3,21.4l-2.9,1.1v0.9c0,0,1.3-0.5,2.1-1.1C49.3,21.7,49.3,21.4,49.3,21.4 M49.7,19.2l-3.3,1.2v0.9
	c0,0,1.3-0.5,2.1-1.1C49.3,19.6,49.7,19.2,49.7,19.2 M34.4,30.1c-1.1,0-1.6,0.5-1.8,1.1h3.7C36.1,30.7,35.5,30.1,34.4,30.1"/>
<path d="M52.4,14.7c0-2.1-3.5-3.9-7.3-3.9s-7.3,1.8-7.3,3.9l0.1,0.5l1.5,8.8l-7.2,4.2c-0.8,0.5-1.7,1.7-1.9,3h1.3
	c0.2-1.3,1.2-2.6,3.1-2.6c1.7,0.1,2.7,1.1,3.6,2.6l0.3,0.4l0.4,0.6H28.3c0.8,1.6,1.5,3.2,1.5,5v22.1c0,5.7,4.4,8.4,9.1,8.4
	c3.7,0,4.1-0.2,6.2,1.9c2-2,2.5-1.9,6.2-1.9c4.7,0,9.1-2.7,9.1-8.4V37.2c0-1.8,0.7-3.5,1.5-5H51.2l0.4-0.6l0.3-0.4
	c1-1.5,2-2.5,3.6-2.6c1.8-0.1,2.8,1.3,3.1,2.6h1.3c-0.1-1.3-1.1-2.5-1.9-3L50.8,24l1.5-8.8C52.3,15.2,52.4,14.7,52.4,14.7z
	 M39.3,15.7l5.4,1.8V26l-4-2.1L39.3,15.7z M40.6,33.7c0.7,1,1.9,1.7,3.2,2c0.1,0.5,0.4,1.1,0.9,1.5c-0.2,1.5,0.4,2.9,2,3.3
	c0.2,0.8,0.6,1.4,1.4,1.6L47,43.4c-0.4,0.5-1,0.7-1.5,0.6l-5-0.6c0.2-0.6-0.4-1.2-2-0.9l2-5.5l-1.2-2.6l-2.3,2v5.7l-1-0.5
	c-1.3-0.6-1.7,1.8-0.4,1.8h0.5c0,0.2,0,0.5,0.2,0.6c-0.2,0.1-0.3,0.5,0,0.7c-0.3,0.1-0.3,0.6-0.1,0.8c-0.3,0.4-0.3,1.4,0.6,1.6
	c0.7,0.2,1.2-0.6,1.3-1l7.8,2.4c1.1,0.3,1.9,0.1,2.8-0.7l2-1.8c-0.3,1.2,0.2,2.2,1.1,2.6c0,0-0.1,1.1-0.1,1.5H31.3V37.2
	c0-1.2-0.3-2.4-0.8-3.5H40.6L40.6,33.7z M49,38.5c-0.4,0.8-0.4,1.8,0.1,2.6l-0.3,0.3c-1.5-0.2-2.1-2.4-2.1-2.4v0.6
	c-0.9-0.3-1.4-1.1-1.4-2.1c0.3,0.2,0.7,0.3,1.1,0.4l0.1-0.6c-1-0.2-1.6-0.8-1.9-1.6h-0.1h0.6c0.6,0,1.2-0.1,1.7-0.3
	c0.4,0.6,1.2,1,1.9,1.1C48.7,37.1,48.7,37.8,49,38.5 M51.2,44.4c-0.1,0.2-0.3,0.4-0.3,0.7l-0.8,0.8c0.2-1.2-0.6-2.6-1.4-3.2l0.9-0.9
	l0.2,0.2C49.4,42.7,50,44.2,51.2,44.4 M47.3,44l0.7-0.7c0.7,0.6,1.6,1.9,1.3,3.2l-0.7,0.7c-0.2,0.1-0.3,0.3-0.5,0.4
	C48.5,46.4,47.9,44.7,47.3,44 M45.8,44.5c0.3,0,0.5,0,0.8-0.1c0.5,0.7,0.9,2.4,0.3,3.5c-0.3,0-0.7-0.1-1-0.1l-0.3-0.1
	C46.1,46.9,46,45.4,45.8,44.5 M44.1,44.3l1,0.1c0.2,0.8,0.1,2.2-0.5,2.9L43.5,47C44,46.4,44.2,45,44.1,44.3 M42.1,44.1l1.2,0.1
	c0.1,0.6-0.1,2-0.5,2.6l-1.2-0.3C42,45.9,42.2,44.8,42.1,44.1 M37.4,43.8c-0.5,0.2-0.8-0.2-0.8-0.5c1.1-0.4,1.5-0.1,1.8,0.1
	c0.3,0.2,0.5,0.7,0.9,1c-0.1,0.4-0.2,1.1-0.4,1.5c-1.1-0.3-1.1-1.2-0.7-1.8C38.1,43.7,37.9,43.6,37.4,43.8 M36.7,45.9
	c0,0,0.3,0.1,0.7,0.2c0,0.2-0.2,0.4-0.5,0.4C36.7,46.4,36.6,46.1,36.7,45.9 M35.6,42.8c-0.3-0.2-0.1-0.6,0.1-0.6
	c0.3,0,0.8,0.4,1.2,0.6C37,42.8,35.8,42.9,35.6,42.8 M36.7,45c0.2,0.2,0.9,0.1,0.9,0.1v0.1C37.4,45.7,36.5,45.5,36.7,45 M37.7,44.6
	c-0.5,0.2-1-0.1-0.9-0.4c0.2,0.2,0.9,0.1,0.9,0.1S37.7,44.6,37.7,44.6z M38.4,38.8l-1,3.5l0.3-5.6l1.5-1.3L40,37l-1.9,5.5l0.5-3.7
	C38.6,38.5,38.4,38.5,38.4,38.8 M38.5,43c0,0,1.1-0.1,1.4,0.1c0.2,0.1,0.1,0.5-0.2,0.4C39.3,43.4,38.5,43,38.5,43 M40.1,43.8
	l1.2,0.1c0.1,0.6-0.1,1.7-0.5,2.3L39.7,46C40,45.3,40,44.6,40.1,43.8 M58.8,59.3c0,2.7-1.2,4.7-3.3,5.9l0.7-1.5h-0.7l-1,1.9
	c-1,0.4-2.1,0.6-3.3,0.6c-3.8,0-4.8,0.2-6.2,1.5c-1.4-1.4-2.4-1.5-6.2-1.5c-1.2,0-2.3-0.2-3.3-0.6l1-1.9h-0.7L35,65.3L34.4,65
	l0.7-1.4h-0.7l-0.5,1c-1.6-1.2-2.6-3-2.6-5.4v-8.5h27.5V59.3L58.8,59.3z M59.6,33.7c-0.4,1.1-0.8,2.3-0.8,3.5v12.9h-1.5
	c-0.7-0.7-1.3-2.9-1.3-2.9c-0.4,0.8,0.1,2.4,0.5,2.9h-1.9c-0.5-0.6-0.9-2.9-0.9-2.9c-0.6,0.7-0.2,2.4,0.1,2.9h-1.3
	c-0.1-0.9,0.2-1.9,0.2-1.9c-0.7-0.1-1.4-0.5-1.4-1.2c0.3,0.3,0.5,0.3,0.9,0.3l0.5-0.4C50.9,47,50.8,45,52.2,44c-1.4,0-2.5-0.8-2-2.3
	c-1-0.5-1.4-2.3-0.6-3c-0.5-0.6-0.6-1.8-0.3-2.5c-0.7,0-1.5-0.3-2-0.8h-0.1c0.9-0.4,1.7-0.9,2.2-1.7L59.6,33.7L59.6,33.7z
	 M54.1,27.4c-1.5,0.3-2.8,2.1-3.8,3.7l-0.1,0.2h-1.1v0.2c-0.1,1.3-1.3,3-4,3c-1.2,0-2.2-0.4-2.8-0.9c-0.6-0.4-0.9-1-1.1-1.5
	c-0.1-0.2-0.1-0.4-0.1-0.6v-0.2H40l-0.1-0.2c-1.1-1.6-2.3-3.5-3.8-3.7l4.1-2.4l5,2.7l5-2.7C50.2,25,54.1,27.4,54.1,27.4z M49.5,23.9
	l-4,2.1v-8.5l5.4-1.8L49.5,23.9z M45.1,16.6l-5.9-2.3c0.5-1.2,2.8-2.2,5.9-2.2s5.4,1,5.9,2.2L45.1,16.6z M58.2,42v-0.6
	c-2,0-2.4-2.4-2.4-2.4C55.2,40.7,56.7,42,58.2,42 M55.7,46l-0.2-0.6c-1.7,0.4-2.6-2.2-2.6-2.2C52.4,45,54.3,46.4,55.7,46 M56.9,43.5
	c-2,0.3-2.9-2-2.9-2c-0.2,1.3,0.6,2.6,1.9,2.7c-0.3,1.7,1.3,2.5,2.6,1.9l-0.2-0.6C57.2,45.9,56.1,44.7,56.9,43.5 M55.7,36.8v-0.6
	c-2.7-0.6-2.4-2.4-2.4-2.4C52.7,35.5,54.2,36.7,55.7,36.8"/>
<path d="M38.8,63.7l-1,1.9h0.7l1-1.9L38.8,63.7z M40.2,63.7l-1,1.9H40l0.9-1.9L40.2,63.7z M46,63.7l-1,1.9h0.7l1-1.9L46,63.7z
	 M47.4,63.7l-0.9,1.9h0.7l0.9-1.9L47.4,63.7z M44.5,63.7l-0.9,1.9h0.7l1-1.9L44.5,63.7z M53,65.6h0.7l1-1.9h-0.8L53,65.6z
	 M41.6,63.7l-0.9,1.9h0.7l1-1.9L41.6,63.7z M43.1,63.7l-1,1.9h0.8l0.9-1.9L43.1,63.7z M39.8,53.2c-0.1,0-0.2,0.1-0.2,0.3
	s0.1,0.3,0.2,0.3s0.3-0.1,0.3-0.3C40.1,53.4,40,53.2,39.8,53.2"/>
<path d="M45.1,9.5c3,0,5.3,1,6.6,2c0,0,0.4-2.4,1.7-4.4L51,7.4l-1.2-2.7L47.4,6l-2.3-2.3L42.8,6l-2.4-1.2l-1.2,2.7l-2.4-0.3
	c1.3,2.1,1.7,4.4,1.7,4.4C39.8,10.5,42.1,9.5,45.1,9.5 M39.5,8.4L40.7,6l2.1,1.1l2.3-2.3l2.3,2.3L49.5,6l1.1,2.4L52,8.2
	c-0.4,0.7-0.6,1.3-0.9,2.1c-1.5-0.9-3.8-1.6-6.1-1.6s-4.6,0.7-6.1,1.6c-0.3-0.8-0.5-1.4-0.9-2.1C38,8.2,39.5,8.4,39.5,8.4z
	 M47.5,4.7c0.3,0,0.7-0.2,0.7-0.6c0-0.3-0.5-1.3-0.5-1.3S47,3.7,47,4.1C46.9,4.4,47.2,4.7,47.5,4.7 M51.4,6.2c0.3,0.2,0.7,0,0.8-0.3
	c0.2-0.3,0.1-1.4,0.1-1.4s-1,0.5-1.2,0.8C51,5.6,51.1,6,51.4,6.2 M42.7,4.7c0.4,0,0.6-0.3,0.6-0.7c0-0.3-0.8-1.2-0.8-1.2
	s-0.6,1-0.5,1.4C42,4.5,42.3,4.8,42.7,4.7 M38.7,6.2C39.1,6,39.2,5.6,39,5.3s-1.2-0.8-1.2-0.8s-0.1,1,0.1,1.4
	C38.1,6.2,38.4,6.3,38.7,6.2 M85.7,27.7c0.8-0.3,1.5-1.1,1.8-1.8c-2.1-0.3-7.8-2.7-12.4-0.7c1.7-1.6,3.3-1.9,3.4-4.2
	c0.7,0.5,1.9,0.8,2.6-0.4c-0.5-1.4-1.7-0.3-1.9-0.7c-0.2-0.5,1.5,0.2,1.9-1.7c-1.4-0.5-1.8,0.6-2,0.4s0.9-0.7,0.1-2.2
	c-1.4,0.8-0.7,1.8-1,1.9c-0.4,0.1-0.1-1-1.6-0.9c-0.2,1.7,1.5,1.7,1.2,2s-0.8-1-1.9-0.3c0,1.4,1.1,2.1,2.3,1.8
	c-0.2,2.6-2.6,2.1-4.3,5c3.7,1.9,5.4,5.3,7.8,7.6c0.8-0.5,2.1-2.9,2.1-2.9c2.5,1.9,4.3,0,4.3,0C87,29.5,87,28.9,85.7,27.7 M82,28.1
	c0.3,0.6,0.8,2.6-0.5,4.1c-1.4-2.8-3.3-5.2-4.9-6.2c-0.3-0.2,0.2-0.6,1.1-0.7c2.9-0.5,6.3,0.7,7.9,1.1c-0.7,0.6-1.4,0.8-2.1,0.9
	c1.2,1,2,1.8,2.6,2.7C85.1,30.3,84.5,29.6,82,28.1"/>
<path d="M44.4,73.6l-1.6-0.1l-0.2,0.6h0.2c0.1,0,0.1-0.1,0.1-0.2c0,0,0.3-0.1,0.6,0l0.7,0.1c-0.4,0.8-1.4,1.6-1.4,2.2
	c0,0.3,0.3,0.4,0.5,0.3c0.3,0,0.4-0.2,0.5-0.6c0.2-0.8,0.6-1.4,0.9-2.4C44.7,73.5,44.4,73.6,44.4,73.6z M45.5,74.6v-0.5h1.4
	l-0.1-0.6c-0.4,0-1,0.1-1.5,0.1l-0.1,1.1c0.7,0,1.1,0.3,1.1,0.9c0,0.3-0.2,0.7-0.5,0.8h-0.2c-0.1-0.1,0-0.2,0-0.4s-0.2-0.3-0.4-0.3
	s-0.3,0.2-0.3,0.4c0,0.4,0.6,0.5,0.9,0.5c0.6,0,1.2-0.3,1.2-1C47.1,74.8,46.2,74.6,45.5,74.6 M48.6,73.5c-0.5,0-0.9,0.4-0.9,0.9
	c0,0.8,0.9,1.1,1.5,0.8c0.1,0.6,0,1.1-0.3,1.1c-0.2,0-0.2-0.2-0.2-0.3c-0.1-0.2-0.2-0.3-0.4-0.2C48,75.8,48,76,48,76.1
	c0.1,0.3,0.5,0.3,0.7,0.3c0.8-0.1,1.2-0.7,1.2-1.4C49.9,74.2,49.4,73.5,48.6,73.5 M48.9,75c-0.5,0-0.6-0.8-0.6-1.2
	c0-0.1,0.1-0.3,0.2-0.3c0.5,0,0.6,1.1,0.6,1.4C49.1,75,49,75,48.9,75"/>
<path d="M41.6,73.3c-0.1,0.1-0.4,0.5-1.2,1.1l0.1,0.1c0.1,0,0.2-0.1,0.4-0.2l-0.4,1.5c0,0.1-0.1,0.1-0.2,0.1H40v0.2l1.4,0.3v-0.2
	l-0.2-0.1c-0.1,0-0.1-0.1-0.1-0.2l0.7-2.6C41.8,73.3,41.6,73.3,41.6,73.3z M57.9,71.3v-3.2c-2.4,1.1-5.6,2-9.6,2.4l-0.2,1.1
	c0.3,0,0.8,0.1,1.3,0.1C47.9,71.9,46,72,45,72c-1.1,0-3-0.1-4.5-0.3c0.6,0,1-0.1,1.3-0.1l-0.2-1.1c-4-0.4-7.1-1.3-9.6-2.4v3.2
	l-3.3,1.4c2.5,1.3,5.3,2.3,8.6,3.2l-0.4,1.3c1.9,0.5,4.9,1.1,8,1.1s6.1-0.6,8-1.1l-0.4-1.3c3.3-0.8,6.1-1.9,8.6-3.2
	C61.1,72.7,57.9,71.3,57.9,71.3z M30.7,72.8l2.2-0.9v-2.6c1.4,0.6,3.3,1.1,6,1.7l-1.3,4.1C34.9,74.5,32.6,73.6,30.7,72.8 M45.1,77.5
	c-2.5,0-5-0.4-7.1-0.9l1.3-4.3c0.9,0.2,3.1,0.5,5.8,0.5c2.6,0,4.9-0.3,5.8-0.5l1.3,4.3C50.1,77.2,47.6,77.5,45.1,77.5 M52.5,75.1
	L51.2,71c2.7-0.6,4.6-1.1,6-1.7v2.6l2.2,0.9C57.6,73.6,55.3,74.5,52.5,75.1 M6.6,30.4c0,0,1.3,2.4,2.1,2.9c2.3-2.3,4-5.7,7.8-7.6
	c-1.8-2.9-4.2-2.4-4.3-5c1.1,0.3,2.2-0.4,2.3-1.8c-1.2-0.7-1.6,0.6-1.9,0.3c-0.3-0.3,1.4-0.3,1.2-2c-1.6,0-1.3,1.1-1.7,0.9
	c-0.3-0.1,0.4-1-1-1.9c-0.8,1.5,0.3,1.9,0.1,2.2c-0.2,0.3-0.7-0.9-2-0.4c0.4,1.8,2.1,1.1,1.9,1.7c-0.2,0.4-1.4-0.8-1.8,0.7
	c0.7,1.2,1.9,0.9,2.6,0.4c0.2,2.4,1.7,2.6,3.4,4.2C10.7,23.1,5,25.4,2.9,25.7c0.3,0.7,1,1.5,1.8,1.8c-1.3,1.2-1.3,1.9-2.2,2.8
	C2.3,30.4,4.1,32.3,6.6,30.4 M4,30c0.6-0.9,1.5-1.8,2.6-2.7c-0.8-0.1-1.4-0.4-2.1-0.9c1.6-0.4,5-1.6,7.9-1.1
	c0.9,0.1,1.5,0.5,1.1,0.7c-1.5,1-3.5,3.4-4.9,6.2c-1.2-1.5-0.7-3.5-0.5-4.1C5.7,29.6,5.1,30.3,4,30"/>
<path d="M43.1,28.6V30c0.5-0.6,1.4-0.5,1.4-0.5v2c0,0,0,1-0.4,1.4h2c-0.3-0.4-0.4-1.4-0.4-1.4v-2c0,0,0.9-0.1,1.4,0.5v-1.4
	C47.1,28.6,43.1,28.6,43.1,28.6z"/>
<path class="st0" d="M104,34.4v22.1 M301.4,33v22"/>
<text transform="matrix(1 0 0 1 216.2 55.1996)" class="st0 st3 st4">Weather</text>
</svg>
