<svg xmlns="http://www.w3.org/2000/svg" xmlns:xlink="http://www.w3.org/1999/xlink" width="216" height="58" viewBox="0 0 216 58">
    <defs>
        <path id="a" d="M31.758 57.216H0V.608h63.516v56.608H31.758z"/>
        <path id="c" d="M21.182 28.852V.022H.577v28.83h20.605z"/>
    </defs>
    <g fill="none" fill-rule="evenodd">
        <g transform="translate(0 .176)">
            <mask id="b" fill="#fff">
                <use xlink:href="#a"/>
            </mask>
            <path fill="#FEFEFE" d="M25.702 8.789l-.028.005.024-.03.004.025zm36.99 18.297l.824-2.634-2.727.087c-.23 0-1.905-.048-3.53-1.224.122.011.242.028.367.028 1.672 0 3.291-1.004 3.94-2.442l1.172-2.597a21.213 21.213 0 0 1-2.817-.166c-.01-.001-1.07-.138-2.296-1.388-.88-.895-1.967-1.369-3.145-1.369-.516 0-.977.093-1.374.218.062-.21.12-.423.155-.644.374-2.43-1.193-4.283-1.193-4.281l-2.051-2.535-1.273 2.977c-.003.009-.326.708-.899 1.048-.173-.876-.6-1.86-1.509-2.8-1.716-1.772-3.805-2.037-4.897-2.037-.507 0-.868.055-.956.07l-2.476.485c.144-.551.448-1.514 1.004-2.378l1.366-2.124-3.437.39-1.096-2.32-2.12 1.09-1.96-1.933-1.955 1.933-2.127-1.09-1.092 2.32-3.436-.391 1.368 2.125c.557.864.86 1.824 1.001 2.375l-2.362-.465-.081-.014c-.119-.018-.478-.073-.987-.073-1.092 0-3.18.265-4.892 2.036-.912.94-1.339 1.925-1.513 2.801-.57-.337-.89-1.024-.89-1.024l-1.273-2.996-2.083 2.55c-.256.33-1.51 2.072-1.17 4.264.035.218.093.43.154.64a4.494 4.494 0 0 0-1.371-.217c-1.179 0-2.267.474-3.148 1.37-1.222 1.244-2.275 1.385-2.266 1.385 0 0-1.115.2-2.84.168l1.166 2.597c.65 1.438 2.27 2.442 3.939 2.442.126 0 .246-.017.369-.028-1.621 1.176-3.296 1.224-3.498 1.225L0 24.452l.842 2.633c.423 1.357 1.837 3.603 4.546 3.845-.294 1.233-.948 2.614-2.383 3.21l-2.069.85 1.129 1.96c.636 1.057 2.132 2.294 4.26 2.294.46 0 .904-.047 1.333-.138.11.483.246.967.408 1.447.634 1.883.087 3.195.081 3.21l-1.021 2.135 2.28.6c.029.009.717.197 1.58.197.39 0 .765-.04 1.115-.123.264-.062.52-.145.765-.243.295.527.653 1.01 1.071 1.441 1.461 1.497 3.532 2.254 6.154 2.254h.009L21.97 50l-3.866 1.606 2.936 1.416c1.067.52 2.332 1.133 3.62 1.602l-.367 1.001 1.013.461c.09.04 2.037.91 5.272 1.094 0 0 .781.036 1.211.036.43 0 1.202-.038 1.202-.038 3.215-.19 5.146-1.052 5.236-1.092l1.015-.462-.37-1.002c1.325-.484 2.637-1.122 3.66-1.621l2.882-1.397L41.559 50l1.88.024c2.626 0 4.698-.758 6.156-2.256.417-.427.775-.91 1.071-1.44a4.822 4.822 0 0 0 1.881.367c.848 0 1.545-.186 1.563-.192l2.29-.605-.997-2.095c-.024-.055-.57-1.367.064-3.252.161-.48.296-.964.407-1.445.43.091.878.137 1.342.138a4.973 4.973 0 0 0 4.263-2.316l1.117-1.94-2.068-.847c-1.438-.597-2.09-1.977-2.382-3.208 2.673-.232 4.107-2.482 4.546-3.847z" mask="url(#b)"/>
        </g>
        <path fill="#FEFEFE" d="M31.764 8.847c-2.19.002-3.834.718-4.19 1.56l4.19 1.652 4.191-1.651c-.354-.843-1.997-1.559-4.191-1.561M31.808 52.533H31.724c-1.327.009-3.156-.262-4.036-.52l-1.06 2.862c.698.248 3.066.724 5.14.724 2.07 0 4.438-.476 5.136-.724l-1.058-2.861c-.884.257-2.71.528-4.038.52M39.827 49.687c-.789.444-2.55 1.114-3.573 1.425l.859 2.363c1.584-.433 2.893-.936 3.972-1.478l-1.785-.591.527-1.72zM23.705 49.687l.528 1.719-1.786.591c1.078.542 2.391 1.045 3.97 1.478l.861-2.363c-1.021-.31-2.785-.98-3.573-1.425M31.764 6.111c1.653 0 3.27.394 4.516 1.087.114-.38.274-.843.49-1.328l-.472.056-.494.052-.21-.45-.63-1.326-1.148.596-.447.228-.357-.352-1.248-1.232-1.245 1.232-.357.352-.447-.228-1.154-.596-.621 1.327-.214.449-.493-.052-.47-.056c.216.485.374.947.49 1.328 1.25-.693 2.866-1.087 4.51-1.087M56.978 21.456c.214.075.432.107.648.107.935 0 1.837-.603 2.148-1.292 0 0-1.713-.103-3.555-1.97-.586-.604-1.207-.785-1.74-.785-.826 0-1.448.435-1.448.435 2.226 1.182 2.68 3.08 3.947 3.505M5.905 21.563c.216 0 .434-.033.644-.106 1.27-.428 1.729-2.324 3.95-3.505 0 0-.622-.436-1.444-.436-.535 0-1.156.18-1.744.786-1.84 1.865-3.552 1.97-3.552 1.97.308.688 1.213 1.291 2.146 1.291"/>
        <path fill="#FEFEFE" d="M56.306 35.073c-1.72-.847-2.808-3.095-3.07-3.904-.287 4.457-2.467 7.55-5.016 10.528-1.323 1.544-1.784 3.045-1.784 3.045s.255-1.7 1.398-3.085c2.379-2.85 4.64-6.4 4.807-10.505.115-2.865-.622-5.188-1.774-7.102.645 1.994.552 4.435-1.634 6.714 0 0 4.356-5.208-1.735-10.548-2.436-2.032-5.104-3.287-6.477-4.176 4.96 1.615 7.383-.163 7.383-.163-1.584 1.37-3.634 1.348-4.907 1.15.346.167.704.343 1.09.55 4.183 2.266 7.941 5.996 8.582 11.161V28.7c.973 5.073 3.137 6.374 3.137 6.374m1.274-5.91c.039.002.071.002.111.002 2.33 0 3.12-2.491 3.12-2.491h-.045c-.427 0-3.893-.1-6.344-3.208-1.613-2.044-2.934-3.84-5.544-4.547l-.257-.045-.056-.261c-.072-.398.202-.77.82-1.174 3.604-2.353 1.157-5.356 1.157-5.356s-1.028 2.4-3.33 2.4l-.17-.002c-.262-.014-.515-.023-.768-.077l-.424-.083s.655-1.781-.929-3.416C43.73 9.67 42.277 9.46 41.44 9.46c-.422 0-.69.054-.69.054.795 1.038 1.37 2.76.452 3.824-.794.914-2.733.957-2.733 2.318 0 .577.54 1.25 1.509 1.854 2.915 1.832 5.807 4.263 7.012 7.52 1.504 4.063-.19 6.76-2.608 8.307 0 0 .759.697 1.857.786.224.021.443.031.647.031 2.322 0 3.523-1.086 3.523-1.086s-.2 1.5-1.406 2.894c-1.116 1.287-2.578 2.045-4.81 2.077 0 0-.07 1.033.918 1.928.632.564 2.092.748 2.092.748s-2.734.553-3.036 4.583c-.165 2.184-.723 2.943-.723 2.943h.049c6.345 0 6.183-5.431 6.183-5.431s.441 1.608 2.212 2.027c.213.056.442.078.66.078.569 0 1.064-.133 1.064-.133s-.927-1.952-.007-4.681c.762-2.265.64-3.943.64-3.943s.854 1.29 2.973 1.301h.022c1.765 0 2.534-1.334 2.534-1.334-4.23-1.754-3.812-7.409-3.812-7.409s.549.409 1.62.447M15.31 41.697c-2.549-2.978-4.728-6.07-5.017-10.529-.263.81-1.347 3.058-3.067 3.905 0 0 2.163-1.301 3.134-6.374v.04c.644-5.165 4.401-8.896 8.584-11.162.384-.208.746-.383 1.09-.55-1.273.197-3.323.22-4.905-1.15 0 0 2.421 1.778 7.38.163-1.372.89-4.038 2.144-6.475 4.176-6.092 5.34-1.735 10.55-1.735 10.55-2.19-2.28-2.278-4.721-1.634-6.716-1.154 1.915-1.892 4.237-1.773 7.102.166 4.104 2.426 7.655 4.8 10.506 1.149 1.384 1.407 3.084 1.407 3.084s-.466-1.5-1.789-3.045m1.02-.982s1.46-.183 2.094-.749c.987-.894.916-1.927.916-1.927-2.232-.032-3.694-.79-4.815-2.076-1.2-1.394-1.4-2.895-1.4-2.895s1.2 1.086 3.519 1.086c.208 0 .425-.01.649-.031 1.1-.089 1.861-.786 1.861-.786-2.42-1.547-4.115-4.244-2.613-8.307 1.204-3.256 4.097-5.688 7.013-7.52.969-.604 1.508-1.277 1.508-1.854 0-1.361-1.937-1.405-2.73-2.318-.919-1.064-.344-2.786.45-3.823 0 0-.265-.055-.69-.055-.837 0-2.288.21-3.48 1.445-1.588 1.634-.93 3.416-.93 3.416l-.424.083c-.253.054-.508.063-.768.077-.06 0-.112.003-.168.003-2.308 0-3.33-2.4-3.33-2.4s-2.446 3.002 1.156 5.355c.619.402.891.776.819 1.174l-.056.26-.261.046c-2.607.707-3.93 2.504-5.544 4.547-2.45 3.108-5.91 3.208-6.342 3.208h-.047s.79 2.492 3.123 2.492c.037 0 .072 0 .11-.003 1.073-.038 1.623-.447 1.623-.447s.414 5.655-3.815 7.409c0 0 .77 1.335 2.535 1.335h.021c2.122-.012 2.974-1.302 2.974-1.302s-.123 1.679.639 3.943c.919 2.73-.004 4.68-.004 4.68s.494.133 1.062.133c.221 0 .447-.021.66-.077 1.767-.419 2.21-2.027 2.21-2.027s-.161 5.431 6.185 5.431h.046s-.555-.76-.719-2.943c-.3-4.03-3.037-4.583-3.037-4.583M30.332 20.702h2.992v1.025c-.352-.43-1.038-.343-1.038-.343v1.477s.026.726.282 1.04H31.087c.26-.314.283-1.04.283-1.04v-1.477s-.684-.087-1.038.343v-1.025zm-3.26.154c.104.111.206.232.305.353.024.03.046.054.07.088.09.12.182.249.27.38.02.025.04.057.06.086.106.161.207.327.307.497.916 1.577 2.38 2.52 3.68 2.523 1.3-.003 2.764-.946 3.682-2.523.102-.175.205-.345.31-.504a6.728 6.728 0 0 1 .331-.466l.06-.075c.103-.127.208-.25.316-.363.018-.018.033-.035.05-.05a3.796 3.796 0 0 1 1.75-1.04l-.324-.188h-.018l-1.288-.747-1.323-.757-3.536 1.921-.01-.008-.007.008-3.536-1.92-1.324.756-1.29.747h-.015l-.327.188c.73.2 1.283.56 1.751 1.037.02.018.035.039.057.057z"/>
        <path fill="#FEFEFE" d="M30.638 14.192v.964l-.186-.084c-.008-.007-.281-.07-.755-.444-.784-.607-.8-1.166-.8-1.166l1.74.73zm.82 4.524v-5.998l-3.825-1.294 1.009 5.81 2.816 1.482zM32.894 14.192l1.74-.73s-.015.56-.802 1.166c-.472.375-.745.437-.754.444l-.184.084v-.964zm1.995 3.043l1.005-5.811-3.823 1.294v5.998l2.818-1.481zM26.05 32.617c.37.134.823.163 1.055.163l.032-.108c.02-.067.04-.136.054-.21.065-.332.087-.708.093-.95-.156-.098-.379-.27-.502-.53-.142-.298-.345-.437-.64-.437-.386 0-.798.23-.976.34-.14.829.472 1.58.883 1.732M34.51 29.436c-.71.77-2.102 2.113-2.168 2.18l-.085.085-4.394-.07a4.526 4.526 0 0 1-.142 1.075l-.035.139 5.226.937c.543-.379 2.04-1.47 2.622-1.897-.422-.615-.463-1.347-.368-1.86a2.613 2.613 0 0 1-.656-.59"/>
        <path fill="#FEFEFE" d="M35.105 24.162c-1.012 1.002-1.983 1.373-2.85 1.46a4.85 4.85 0 0 1-.479.026h-.022a4.797 4.797 0 0 1-.948-.1c-.057.225-.13.696.077 1.143.183.405.556.706 1.1.907l.184.071.003.197c0 .058.043 1.334 1.436 1.688.227-.233.434-.445.587-.622-.284-.669-.135-1.351.278-1.685-.018.07-.2 1.745 1.146 2.367l.221.105-.066.236c-.022.069-.47 1.69 1.159 2.292l.287.11-.127.28c-.028.062-.666 1.53.837 2.366h3.262V32.42c-1.16-.141-1.65-1.071-1.778-1.73-.54-.092-.956-.325-1.243-.703-.684-.899-.096-1.723-.088-1.767 0 .007 0 .884.542 1.425.27.26.587.463 1.068.508l.238.021.02.243c.004.05.134 1.238 1.241 1.424l-.003-5.279c0-.817.239-1.64.527-2.4h-6.609zM26.327 26.58l-.089 3.362.384.058.935-3.225-.474-.992zM28.354 39.024a.188.188 0 0 1-.181-.205.19.19 0 0 1 .205-.177c.11.005.187.1.183.203a.194.194 0 0 1-.207.179m8.295 2.975a.39.39 0 0 1 .093.012c.582.165.73 2.261 1.75 2.448.102.02.194.027.274.027.296 0 .472-.125.662-.35 0 0-.515-.805-.898-1.35-.511-.712-.907-1.571-1.86-1.571-.021 0-.049 0-.072.003-.313.015-.507.168-.507.168a1.967 1.967 0 0 0-1.068-.323c-.595 0-1.058.272-1.29.272h-.01l-2.123-.209c-.332-.031-.595-.366-.689-.496l-.037-.057c0-.058 0-.116-.003-.169-.072-1.733-1.416-2.474-1.895-2.486 0 0 .056-.33-.073-.455l-.47.567-1.535-.77 1.097 1.279-.93 1.04c-.117.118-.102.278-.052.345l.4.356.51-.31c.024-.017.072-.024.127-.024.141 0 .352.037.542.037.207 0 .386-.044.408-.239-.064.642-.662 1.759-.27 2.636l.291.663-1.877-.27-.879 1.481c-.27.493-.313 1.025-.053 1.317l.329.41s.46-.488.565-.81l-.15-.163c-.125-.138-.12-.26-.042-.41l.551-.911 2.216.52.117-.198c.15-.25.368-.324.605-.324.098 0 .198.012.302.028.412.081 1.088.19 1.765.19.743 0 1.48-.132 1.874-.572.803 1.187 2.429 1.376 2.302 1.98l-.43 2.034c.284-.011.557-.031.817-.067l.407-2.116c.045-.23.088-.54.088-.54-.157-.16-.537-.494-.751-.903-.288-.55-.131-.838-.398-1.554 0 0 .082-.166.27-.166"/>
        <path fill="#FEFEFE" d="M25.328 43.924s.736-.303.8-.516l-.097-.246c-.07-.159-.06-.331.074-.425l.793-.547 1.325.253s-.24-.299-.217-.699l-1.265-.267-1.191.725a1.153 1.153 0 0 0-.38 1.376l.158.346zM34.7 47.372c.236-.01.5-.014.786-.014 0 0 .682-1.99.72-2.053a16.93 16.93 0 0 1-1.482-.78c.204.303.695.646.598.914l-.622 1.933z"/>
        <path fill="#FFE60F" d="M41.19 35.573H22.343v7.073c0 2.894 2.098 4.705 5.194 4.705 2.587 0 3.27.1 4.23 1.054.664-.661 1.212-.907 2.338-.999l.027-.11.594-1.831c-.033-.042-1.004-1.142-1.004-1.142-.386.127-.71.149-1.252.149-.558 0-1.187-.065-1.87-.194a.872.872 0 0 0-.197-.022c-.084 0-.09.006-.112.048l-.118.194-.215.356-.408-.093-1.809-.425-.248.408.038.044.22.242-.099.316c-.132.411-.564.893-.696 1.026l-.452.484-.411-.52-.31-.388c-.326-.363-.4-.918-.217-1.501a.048.048 0 0 1-.019.007l-.51.211-.23-.497-.16-.353a1.719 1.719 0 0 1 .572-2.077l1.456-.82 1.385.271c.033-.132.083-.606.123-.728-.027-.003-.051-.009-.08-.009l-.797.297-.771-.53s-.301-.289-.028-.58l.745-1.126-1.89-2.366 2.905 1.19.193-.238.392-.468.444.421c.126.122.198.27.234.42.8.31 2.234 1.228 2.36 2.72l-.448.178v.011c.103.122.188.172.214.176l2.073.204c.052-.01.118-.033.191-.055.258-.087.644-.214 1.102-.214.374 0 .735.086 1.083.247.127-.047.285-.084.466-.094l.1-.003c1.11 0 1.662.826 2.104 1.487.074.114.147.221.224.328.387.546.894 1.344.914 1.38l.228.355-.279.324c-.215.25-.54.542-1.095.542-.115 0-.24-.013-.376-.038a1.66 1.66 0 0 1-.329-.102c-.016.11-.04.24-.059.352l-.363 1.892c2.174-.533 3.553-2.17 3.553-4.516l-.003-7.073zM22.343 35.003h14.659c-.733-.755-.722-1.71-.536-2.33a2.455 2.455 0 0 1-.546-.36 264.14 264.14 0 0 1-2.778 2.011l-.098.065-5.754-1.037h-.116c-.138 0-.34-.006-.56-.032a.559.559 0 0 1-1.003.2.551.551 0 0 1-.101-.421l.022-.124c-.593-.417-1.142-1.35-.898-2.331l.023-.104.084-.06c.012-.009.111-.077.26-.16l-.418-.065a.285.285 0 1 1 .091-.564l.996.156.091-3.498 1.481-1.565.926 1.943-.977 3.366.88.138c.155.025.26.17.237.329a.28.28 0 0 1-.282.236c-.015 0-.03 0-.045-.002l-.715-.115c.01.022.023.034.032.056.076.158.245.27.344.319l4.385.07c.187-.182.646-.63 1.12-1.106a2.36 2.36 0 0 1-1.537-1.954c-.603-.256-1.02-.64-1.25-1.14-.281-.618-.182-1.238-.106-1.539-.585-.212-1.2-.6-1.829-1.223H21.82c.283.76.523 1.582.523 2.399v8.442z"/>
        <path fill="#221F20" d="M28.378 38.643a.19.19 0 0 0-.206.177.188.188 0 0 0 .183.204.194.194 0 0 0 .206-.178.194.194 0 0 0-.183-.203M37.113 53.475l-.86-2.363c1.024-.31 2.785-.98 3.574-1.425l-.526 1.719 1.784.591c-1.08.541-2.387 1.045-3.972 1.478zm-5.345 2.124c-2.074 0-4.441-.476-5.14-.724l1.06-2.861c.88.256 2.709.528 4.035.52H31.808c1.327.008 3.154-.264 4.038-.52l1.058 2.86c-.698.25-3.065.725-5.136.725zm-9.32-3.602l1.785-.591-.527-1.72c.787.445 2.55 1.115 3.573 1.426l-.862 2.363c-1.579-.433-2.892-.937-3.97-1.478zm18.717-.525l-1.087-.414.3-1.121.331-1.219s-1.924 1.042-4.635 1.823c-.769.22-1.35.32-1.35.32v.832s-1.452.25-2.916.25H31.723c-1.466 0-2.914-.25-2.914-.25v-.832s-.583-.1-1.35-.32c-2.711-.781-4.633-1.823-4.633-1.823l.325 1.219.306 1.12-1.09.415-1.208.451c1.384.667 3.304 1.637 5.058 2.118l-.413 1.13s2.227 1.011 5.936 1.02v.002h.05v-.002c3.715-.009 5.94-1.02 5.94-1.02l-.416-1.13c1.755-.48 3.677-1.451 5.056-2.118l-1.205-.45zM27.233 5.927l.493.051.213-.449.622-1.327 1.154.596.447.227.357-.352 1.245-1.232 1.248 1.232.358.352.447-.227 1.148-.596.63 1.327.209.45.494-.052.472-.058c-.216.486-.376.948-.49 1.329-1.245-.692-2.864-1.087-4.516-1.087-1.644 0-3.262.395-4.512 1.087-.116-.381-.274-.843-.489-1.329l.47.058zm4.531.877c2.21 0 3.978.73 4.955 1.51 0 0 .29-1.744 1.281-3.282l-1.78.203-.932-1.975-1.789.92-1.735-1.71-1.73 1.71-1.793-.92-.93 1.975-1.78-.203c.992 1.538 1.28 3.281 1.28 3.281.984-.779 2.746-1.51 4.953-1.51zM59.774 36.125s-.77 1.335-2.535 1.335h-.022c-2.119-.012-2.974-1.302-2.974-1.302s.123 1.678-.64 3.943c-.92 2.73.008 4.68.008 4.68s-.496.134-1.065.134c-.218 0-.445-.022-.66-.078-1.77-.42-2.21-2.028-2.21-2.028s.162 5.432-6.185 5.432h-.048s.559-.76.723-2.943c.302-4.03 3.036-4.584 3.036-4.584s-1.46-.182-2.092-.748c-.989-.894-.918-1.927-.918-1.927 2.232-.032 3.695-.79 4.81-2.077 1.207-1.393 1.405-2.893 1.405-2.893s-1.2 1.085-3.522 1.085c-.204 0-.422-.01-.646-.031-1.099-.089-1.858-.786-1.858-.786 2.417-1.546 4.112-4.244 2.609-8.307-1.205-3.257-4.099-5.689-7.013-7.52-.969-.605-1.51-1.276-1.51-1.854 0-1.361 1.94-1.405 2.734-2.318.918-1.063.343-2.785-.452-3.824 0 0 .267-.054.69-.054.839 0 2.29.211 3.483 1.445 1.584 1.635.927 3.416.927 3.416l.424.083c.254.054.507.063.769.077l.17.003c2.301 0 3.33-2.401 3.33-2.401s2.446 3.002-1.156 5.356c-.619.402-.893.776-.82 1.173l.055.261.256.046c2.611.707 3.933 2.504 5.545 4.547 2.451 3.107 5.917 3.208 6.345 3.208h.045s-.79 2.491-3.121 2.491c-.04 0-.072 0-.11-.002-1.072-.038-1.62-.448-1.62-.448s-.418 5.657 3.813 7.41zm-2.083-6.197c2.857 0 3.814-2.9 3.853-3.025l.32-1.023-1.071.034h-.004c-.377 0-3.532-.084-5.767-2.919l-.211-.263c-1.461-1.854-2.846-3.617-5.323-4.421.072-.065.174-.144.314-.235 1.315-.862 2.08-1.91 2.272-3.126.281-1.83-.89-3.29-.941-3.35l-.796-.981-.497 1.164c-.033.074-.869 1.939-2.628 1.939h-.131c-.12-.007-.236-.012-.348-.02.062-.832-.09-2.12-1.26-3.328-1.408-1.453-3.132-1.672-4.034-1.672-.482 0-.802.06-.838.063l-1.201.238.741.976c.582.752 1.109 2.139.484 2.862-.2.232-.612.418-1.005.606-.81.372-1.915.89-1.915 2.209 0 .853.664 1.745 1.866 2.503 3.558 2.233 5.754 4.564 6.702 7.136 1.468 3.957-.447 6.213-2.306 7.404l-.834.534.73.669c.099.086.99.87 2.31.984.25.016.488.03.712.03.845 0 1.565-.133 2.15-.311-.16.281-.359.569-.607.856-1.063 1.229-2.37 1.788-4.25 1.818l-.698.011-.053.7c-.007.14-.059 1.437 1.17 2.539.188.17.415.312.655.425-.835.75-1.682 2.054-1.846 4.29-.14 1.865-.585 2.555-.59 2.562l-.771 1.176 1.394.02c2.306 0 4.07-.636 5.293-1.893a5.985 5.985 0 0 0 1.38-2.328 3.76 3.76 0 0 0 2.434.892c.651 0 1.196-.138 1.257-.153l.89-.235-.393-.83c-.028-.066-.772-1.732.027-4.107.344-1.027.521-1.947.606-2.663.562.292 1.313.533 2.283.536 2.205 0 3.178-1.644 3.22-1.713l.435-.755-.804-.33c-2.628-1.09-3.21-4.014-3.327-5.595.238.046.51.088.816.097l.135.003z"/>
        <path fill="#221F20" d="M54.48 17.516c.532 0 1.152.181 1.739.786 1.843 1.866 3.555 1.97 3.555 1.97-.311.688-1.214 1.292-2.148 1.292-.217 0-.433-.033-.648-.108-1.268-.426-1.721-2.323-3.946-3.504 0 0 .62-.436 1.447-.436zm-1.811 1.11c1.066.567 1.687 1.326 2.231 2 .536.657 1.043 1.289 1.838 1.552.282.097.582.143.888.143 1.191 0 2.39-.728 2.844-1.736l.457-1.011-1.106-.065c-.052-.002-1.474-.132-3.055-1.745-.651-.662-1.439-1.009-2.287-1.009-1.036 0-1.804.517-1.888.57l-1.016.714 1.094.588zM53.17 28.7v.038c-.641-5.165-4.4-8.895-8.582-11.161a28.733 28.733 0 0 0-1.09-.55c1.271.197 3.322.22 4.905-1.15 0 0-2.421 1.779-7.382.163 1.372.89 4.041 2.144 6.478 4.176 6.09 5.34 1.733 10.548 1.733 10.548 2.188-2.279 2.28-4.72 1.635-6.714 1.153 1.915 1.89 4.237 1.775 7.102-.168 4.104-2.429 7.654-4.807 10.505-1.144 1.385-1.4 3.085-1.4 3.085s.463-1.5 1.785-3.045c2.55-2.978 4.73-6.07 5.015-10.529.263.81 1.35 3.058 3.072 3.905 0 0-2.165-1.301-3.137-6.374M20.04 48.241c-6.346 0-6.185-5.432-6.185-5.432s-.443 1.609-2.21 2.028a2.579 2.579 0 0 1-.66.078 4.56 4.56 0 0 1-1.062-.134s.922-1.95.003-4.68c-.76-2.264-.637-3.943-.637-3.943s-.853 1.29-2.975 1.302h-.021c-1.764 0-2.535-1.335-2.535-1.335 4.228-1.753 3.814-7.41 3.814-7.41s-.55.41-1.621.448c-.039.002-.074.002-.111.002-2.332 0-3.123-2.491-3.123-2.491h.047c.431 0 3.893-.1 6.342-3.208 1.614-2.043 2.937-3.84 5.543-4.547l.262-.046.057-.26c.071-.398-.202-.772-.82-1.174-3.603-2.354-1.157-5.355-1.157-5.355s1.023 2.4 3.33 2.4c.056 0 .11-.003.169-.003.259-.014.515-.023.768-.077l.425-.083s-.66-1.781.928-3.416c1.193-1.234 2.643-1.445 3.481-1.445.425 0 .69.054.69.054-.794 1.039-1.369 2.76-.45 3.824.793.913 2.73.957 2.73 2.318 0 .577-.54 1.25-1.508 1.854-2.916 1.831-5.81 4.263-7.013 7.52-1.502 4.063.193 6.761 2.613 8.307 0 0-.761.697-1.862.786-.223.022-.44.031-.648.031-2.318 0-3.52-1.085-3.52-1.085s.2 1.5 1.401 2.894c1.121 1.286 2.583 2.044 4.815 2.076 0 0 .07 1.033-.916 1.927-.634.566-2.094.748-2.094.748s2.736.554 3.037 4.584c.164 2.184.719 2.943.719 2.943h-.046zm.675-.435c-.003-.007-.446-.697-.588-2.563-.166-2.235-1.012-3.54-1.849-4.289.242-.113.466-.255.655-.425 1.228-1.102 1.176-2.399 1.167-2.54l-.047-.699-.703-.011c-1.875-.03-3.184-.59-4.246-1.818a5.654 5.654 0 0 1-.608-.856 7.31 7.31 0 0 0 2.148.31c.227 0 .464-.013.713-.029 1.32-.114 2.213-.897 2.311-.984l.732-.669-.834-.534c-1.866-1.191-3.772-3.447-2.308-7.404.95-2.572 3.142-4.903 6.705-7.136 1.202-.758 1.86-1.65 1.86-2.503 0-1.318-1.102-1.837-1.911-2.209-.395-.188-.805-.374-1.005-.606-.627-.723-.099-2.11.483-2.862l.746-.976-1.208-.238c-.035-.003-.352-.063-.836-.063-.901 0-2.623.219-4.029 1.672-1.172 1.209-1.326 2.496-1.265 3.327-.113.009-.227.014-.348.02h-.128c-1.764 0-2.598-1.864-2.63-1.938l-.496-1.164-.802.982c-.046.06-1.22 1.519-.934 3.349.19 1.215.956 2.264 2.27 3.126.143.091.242.17.315.235-2.482.804-3.865 2.567-5.326 4.421l-.21.263c-2.233 2.835-5.392 2.92-5.77 2.92L1.66 25.88l.328 1.023c.038.124.99 3.025 3.85 3.025l.139-.003c.302-.009.573-.051.815-.097-.118 1.581-.702 4.506-3.33 5.595l-.803.33.435.755c.041.069 1.017 1.713 3.225 1.713.967-.003 1.717-.244 2.278-.535.086.715.262 1.635.607 2.662.8 2.375.055 4.04.026 4.107l-.395.83.893.235c.058.015.608.153 1.256.153a3.742 3.742 0 0 0 2.434-.891 5.98 5.98 0 0 0 1.379 2.327c1.227 1.257 2.99 1.892 5.293 1.892l1.396-.02-.772-1.175z"/>
        <path fill="#221F20" d="M7.31 18.302c.59-.605 1.21-.786 1.745-.786a2.77 2.77 0 0 1 1.445.435c-2.223 1.183-2.681 3.08-3.951 3.506-.21.074-.428.106-.644.106-.934 0-1.838-.603-2.146-1.292 0 0 1.711-.104 3.552-1.97m-1.406 4.02c.307 0 .605-.046.888-.143.797-.263 1.304-.895 1.84-1.553.546-.673 1.161-1.432 2.228-1.999l1.097-.587-1.019-.715c-.085-.053-.849-.569-1.884-.569-.85 0-1.638.347-2.29 1.01-1.582 1.612-3 1.742-3.053 1.744l-1.104.064.454 1.012c.456 1.007 1.653 1.735 2.843 1.735M10.892 31.152c-.118-2.865.618-5.188 1.772-7.102-.643 1.994-.556 4.435 1.636 6.715 0 0-4.357-5.209 1.735-10.549 2.435-2.032 5.101-3.287 6.474-4.176-4.958 1.615-7.38-.162-7.38-.162 1.582 1.37 3.633 1.346 4.904 1.148-.343.168-.705.344-1.09.55-4.182 2.267-7.938 5.997-8.583 11.162V28.7c-.972 5.073-3.134 6.374-3.134 6.374 1.72-.847 2.804-3.095 3.068-3.904.287 4.457 2.468 7.55 5.016 10.528 1.323 1.544 1.789 3.045 1.789 3.045s-.259-1.7-1.407-3.085c-2.374-2.85-4.634-6.4-4.8-10.505M30.332 20.702v1.025c.354-.43 1.038-.343 1.038-.343v1.477s-.024.726-.283 1.04H32.568c-.256-.314-.282-1.04-.282-1.04v-1.477s.686-.087 1.038.343v-1.025h-2.992zM29.696 14.628c.475.375.747.438.756.443l.185.085v-.964l-1.74-.73s.016.56.8 1.166M33.833 14.628c.786-.606.801-1.165.801-1.165l-1.74.73v.963l.184-.085c.01-.005.282-.068.755-.443"/>
        <path fill="#221F20" d="M31.764 12.06l-4.19-1.652c.356-.843 2-1.558 4.19-1.56 2.194.002 3.837.717 4.191 1.56l-4.191 1.651zm3.124 5.175l-2.816 1.48v-5.997l3.822-1.295-1.006 5.812zm1.745 1.592l1.288.746h.018l.324.188a3.8 3.8 0 0 0-1.75 1.04c-.017.015-.032.033-.05.05a6.834 6.834 0 0 0-.315.364c-.019.024-.04.049-.06.076-.1.128-.194.26-.284.396l-.048.07a8.945 8.945 0 0 0-.31.504c-.917 1.576-2.38 2.519-3.682 2.521-1.3-.002-2.764-.945-3.68-2.521-.1-.171-.2-.337-.306-.497-.021-.03-.04-.061-.06-.087-.09-.13-.18-.26-.272-.38-.023-.033-.045-.058-.068-.087a7.137 7.137 0 0 0-.306-.354c-.022-.018-.036-.04-.055-.058a3.806 3.806 0 0 0-1.751-1.037l.327-.188h.015l1.29-.746 1.323-.757 3.537 1.921.006-.008.01.008 3.535-1.921 1.324.757zm5.08 5.335c-.287.759-.526 1.581-.526 2.399l.002 5.278c-1.105-.184-1.235-1.373-1.24-1.424l-.02-.242-.238-.02c-.481-.047-.8-.249-1.068-.51-.542-.54-.542-1.417-.542-1.425-.008.045-.596.869.088 1.768.287.378.704.611 1.243.704.126.657.618 1.588 1.777 1.73v2.583h-3.26c-1.504-.835-.867-2.304-.838-2.367l.127-.28-.287-.107c-1.63-.603-1.18-2.224-1.159-2.295l.066-.235-.222-.105c-1.344-.623-1.163-2.297-1.145-2.368-.414.335-.563 1.017-.278 1.686-.154.177-.36.39-.587.623a1.823 1.823 0 0 1-1.436-1.69l-.003-.196-.183-.071c-.544-.201-.917-.502-1.101-.907-.206-.448-.134-.918-.077-1.144a4.601 4.601 0 0 0 .949.1h.022c.16 0 .32-.01.477-.026.868-.086 1.839-.458 2.851-1.46h6.608zm-4.074 23l.365-1.893c.018-.111.042-.242.058-.35.103.043.211.077.329.1.136.026.261.039.375.039.556 0 .88-.292 1.096-.54l.28-.326-.229-.356c-.02-.035-.526-.833-.914-1.379a7.533 7.533 0 0 1-.223-.329c-.443-.66-.995-1.486-2.105-1.486l-.1.003c-.182.01-.339.047-.466.094a2.54 2.54 0 0 0-1.082-.247c-.46 0-.845.127-1.102.214-.074.022-.14.044-.192.055l-2.073-.204c-.026-.005-.11-.055-.214-.177v-.01l.448-.179c-.126-1.492-1.561-2.409-2.36-2.72a.838.838 0 0 0-.233-.419l-.446-.422-.391.469-.194.239-2.903-1.19 1.89 2.365-.746 1.127c-.273.29.028.58.028.58l.77.529.798-.297c.028 0 .053.006.08.01-.04.12-.09.596-.122.728l-1.386-.272-1.456.82a1.719 1.719 0 0 0-.573 2.077l.162.353.23.497.51-.21a.042.042 0 0 0 .018-.01c-.184.585-.108 1.14.217 1.503l.31.388.41.52.452-.485c.133-.132.565-.614.697-1.026l.098-.315-.22-.242-.037-.044.249-.408 1.808.425.407.093.216-.356.118-.194c.022-.042.028-.048.112-.048.064 0 .128.006.197.022.682.129 1.312.193 1.87.193.542 0 .866-.021 1.252-.149 0 0 .97 1.1 1.004 1.143l-.595 1.831-.026.111c-1.127.09-1.674.337-2.337.998-.962-.953-1.644-1.054-4.23-1.054-3.097 0-5.196-1.81-5.196-4.705v-7.073H41.19l.004 7.073c0 2.346-1.38 3.983-3.554 4.516zm-11.608-3.998l.097.244c-.064.214-.8.516-.8.516l-.159-.347a1.154 1.154 0 0 1 .38-1.375l1.192-.725 1.265.268c-.023.4.216.7.216.7l-1.324-.255-.793.547c-.135.093-.144.266-.074.427zm11.41 1.998l-.408 2.116c-.26.037-.534.055-.816.067l.428-2.034c.128-.603-1.498-.792-2.302-1.981-.392.44-1.13.573-1.873.573a9.611 9.611 0 0 1-1.766-.19 1.84 1.84 0 0 0-.301-.027c-.238 0-.454.072-.604.323l-.118.2-2.217-.522-.55.912c-.077.148-.084.27.041.41l.15.163c-.102.321-.564.809-.564.809l-.329-.41c-.26-.291-.218-.824.054-1.317l.879-1.48 1.877.269-.291-.662c-.392-.878.205-1.994.269-2.637-.022.194-.201.238-.41.238-.188 0-.4-.036-.54-.036-.055 0-.103.006-.129.024l-.508.308-.4-.353c-.049-.067-.064-.227.054-.347l.928-1.04-1.097-1.278 1.536.77.469-.568c.13.127.073.457.073.457.479.01 1.823.752 1.895 2.485.004.052.004.112.004.17l.036.056c.094.13.357.464.69.496l2.123.21h.008c.233 0 .696-.273 1.29-.273.325 0 .685.082 1.069.324 0 0 .193-.153.507-.17.023-.003.05-.003.073-.003.952 0 1.348.86 1.859 1.573.384.543.898 1.35.898 1.35-.19.224-.366.35-.662.35-.08 0-.173-.007-.274-.028-1.02-.187-1.168-2.282-1.75-2.448a.356.356 0 0 0-.093-.012c-.189 0-.27.167-.27.167.266.714.111 1.002.398 1.553.213.408.594.744.75.903 0 0-.042.309-.087.54zm-1.956 2.196a21.7 21.7 0 0 0-.785.014l.621-1.933c.098-.267-.393-.611-.597-.914.307.193 1.1.613 1.482.78-.038.063-.72 2.053-.72 2.053zm-9.247-17.417l.089-3.36.756-.798.474.992L26.622 30l-.384-.06zm.544 1.042c.123.258.345.43.502.528a5.97 5.97 0 0 1-.093.95 2.231 2.231 0 0 1-.054.212c-.011.043-.024.078-.033.107-.231 0-.684-.029-1.055-.163-.41-.152-1.023-.904-.882-1.732.177-.11.589-.34.975-.34.296 0 .498.14.64.438zm8.751.902c-.58.428-2.077 1.518-2.622 1.897l-5.226-.937.036-.14c.069-.27.14-.64.142-1.074l4.394.07.084-.086c.067-.066 1.459-1.408 2.168-2.18.169.212.38.413.658.59-.096.513-.055 1.245.366 1.86zm-7.107-7.723c.628.623 1.243 1.01 1.828 1.223-.077.301-.176.922.105 1.54.23.5.648.883 1.251 1.139a2.36 2.36 0 0 0 1.537 1.953 95.87 95.87 0 0 1-1.12 1.106l-4.384-.069c-.1-.05-.27-.161-.345-.319-.009-.022-.023-.034-.032-.056l.715.115c.016.002.03.002.046.002a.283.283 0 0 0 .282-.236.287.287 0 0 0-.237-.328l-.881-.139.976-3.365-.924-1.943-1.482 1.563-.091 3.5-.996-.158c-.154-.03-.301.083-.329.239a.29.29 0 0 0 .238.326l.418.064a3.1 3.1 0 0 0-.26.161l-.084.06-.023.103c-.243.983.305 1.914.897 2.332l-.02.124a.547.547 0 0 0 .1.422.55.55 0 0 0 .46.236c.256 0 .48-.178.543-.437.22.027.422.032.56.032h.118l5.751 1.037.099-.065c.457-.319 2.205-1.59 2.779-2.011.157.135.333.258.545.36-.186.62-.197 1.576.536 2.33h-14.66V26.56c0-.818-.24-1.64-.523-2.4h6.607zm-.793-12.739l3.825 1.295v5.998l-2.816-1.48-1.009-5.813zm9.333-.723c0-1.463-2.469-2.78-5.193-2.78H31.758c-2.725 0-5.194 1.317-5.194 2.78l.054.36 1.088 6.232-1.092.633-2.828 1.648h.01s-.636.326-.931.526c-1.076.746-1.305 1.836-.68 2.285.153-.887.857-1.815 2.174-1.815.949 0 1.672.489 2.255 1.22.15.185.293.383.425.595.164.268.328.504.491.73h-7.283c.535 1.073 1.044 2.21 1.044 3.447v16.085c0 3.895 3 5.752 6.246 5.752 2.51 0 2.847-.114 4.23 1.263 1.379-1.377 1.717-1.263 4.227-1.263 3.248 0 6.245-1.857 6.245-5.752V26.561c0-1.236.508-2.374 1.046-3.447h-7.286c.163-.226.327-.462.491-.73a6.47 6.47 0 0 1 .423-.594c.588-.735 1.31-1.221 2.259-1.221 1.315 0 2.017.928 2.174 1.815.625-.45.399-1.539-.684-2.285-.29-.2-.927-.526-.927-.526h.01l-2.832-1.648-1.089-.633 1.09-6.232.052-.36z"/>
        <path fill="#FFF" d="M95.592 32.077c.265-.416.537-.827.822-1.235h.167v9.226h4.199V24.404h-4.2l-4.703 7.144c-.264.408-.528.802-.79 1.183-.263.386-.528.794-.79 1.22h-.166v-9.547h-4.199v15.664h4.2a91.688 91.688 0 0 0 2.318-3.346c.757-1.143 1.52-2.27 2.286-3.382.307-.424.593-.848.856-1.263M108.942 33.566h6.25v6.503h4.2V24.404h-4.2v5.96h-6.25v-5.96h-4.2v15.665h4.2zM131.912 36.482c-.417.3-.966.448-1.644.448h-2.711v-3.845h2.677c.702 0 1.261.162 1.678.481.413.32.621.803.621 1.442 0 .683-.208 1.175-.62 1.474m4.822-1.44c0-1.604-.559-2.847-1.67-3.736-1.115-.884-2.609-1.33-4.481-1.33h-3.027v-5.572h-4.202v15.665h7.413c1.81 0 3.258-.403 4.34-1.2 1.086-.804 1.627-2.077 1.627-3.826M186.484 36.93a4.695 4.695 0 0 1-1.622.415V27.222c1.377.109 2.438.625 3.182 1.554.744.93 1.117 2.08 1.117 3.443 0 .815-.12 1.53-.364 2.148a4.824 4.824 0 0 1-.952 1.57 4.23 4.23 0 0 1-1.36.993zm-5.565.385a5.049 5.049 0 0 1-1.684-.416 4.204 4.204 0 0 1-1.39-.997 4.699 4.699 0 0 1-.94-1.553c-.234-.606-.35-1.315-.35-2.13 0-1.364.382-2.513 1.142-3.443.76-.929 1.835-1.445 3.222-1.554v10.093zm9.851.701a7.691 7.691 0 0 0 1.75-2.528c.425-.983.642-2.104.642-3.367 0-1.172-.21-2.24-.627-3.2a7.43 7.43 0 0 0-1.73-2.483c-.735-.693-1.613-1.238-2.634-1.633-1.02-.395-2.125-.623-3.309-.69v-5.891l-3.943 1.507v4.384a10.258 10.258 0 0 0-3.29.722c-1.024.418-1.913.973-2.663 1.667a7.604 7.604 0 0 0-1.767 2.466c-.43.95-.644 2.002-.644 3.151 0 1.263.2 2.39.595 3.384.395.99.965 1.846 1.703 2.56a7.724 7.724 0 0 0 2.644 1.668c1.028.393 2.167.623 3.422.686v6.637l3.976-1.507v-5.16c1.16-.062 2.25-.3 3.26-.704a8.064 8.064 0 0 0 2.615-1.669z"/>
        <g transform="translate(194.793 18.203)">
            <mask id="d" fill="#fff">
                <use xlink:href="#c"/>
            </mask>
            <path fill="#FFF" d="M16.818 16.165a4.934 4.934 0 0 1-.95 1.569c-.393.426-.85.759-1.362.994a4.756 4.756 0 0 1-1.625.415V9.019c1.375.108 2.438.626 3.183 1.553.743.932 1.114 2.08 1.114 3.445 0 .814-.116 1.529-.36 2.148zm-7.875 2.947a5.095 5.095 0 0 1-1.688-.416 4.215 4.215 0 0 1-1.387-.996 4.686 4.686 0 0 1-.944-1.553c-.232-.608-.346-1.316-.346-2.13 0-1.365.379-2.513 1.139-3.445.763-.927 1.836-1.445 3.226-1.553v10.093zm11.597-1.826c.428-.985.642-2.104.642-3.367 0-1.172-.208-2.241-.626-3.201a7.447 7.447 0 0 0-1.73-2.483c-.734-.692-1.614-1.237-2.634-1.633-1.023-.396-2.127-.623-3.311-.689V.021L8.943 1.528v4.385c-1.17.066-2.266.304-3.293.722-1.023.418-1.91.972-2.66 1.666a7.56 7.56 0 0 0-1.77 2.465c-.429.95-.643 2.004-.643 3.153 0 1.263.195 2.389.596 3.382a7.245 7.245 0 0 0 1.702 2.562c.738.718 1.62 1.273 2.645 1.668 1.023.392 2.166.622 3.423.686v6.635l3.971-1.505v-5.16a10.274 10.274 0 0 0 3.261-.704 8.118 8.118 0 0 0 2.617-1.669 7.665 7.665 0 0 0 1.748-2.528z" mask="url(#d)"/>
        </g>
        <path fill="#FFF" d="M68.915 21.393h6.115v18.694h4.366V21.393h5.91v-3.647H68.915zM154.212 24.486h-4.79l-5.626 6.656v-6.738h-4.166v15.682h4.166V32.46l5.494 7.626h4.954l-6.18-8.392zM165.914 34.159a5.193 5.193 0 0 1-.663 1.523c-.29.438-.65.78-1.082 1.024-.432.246-.922.37-1.479.37-1.128 0-1.992-.425-2.591-1.266-.599-.842-.899-2.034-.899-3.574 0-1.363.292-2.498.865-3.393.58-.898 1.418-1.347 2.525-1.347 1.174 0 2.06.445 2.66 1.33.6.887.895 2.047.895 3.478 0 .66-.077 1.278-.231 1.855m2.303-7.848a6.686 6.686 0 0 0-2.425-1.619c-.946-.373-1.977-.56-3.102-.56-1.12 0-2.154.187-3.1.56a7.012 7.012 0 0 0-2.444 1.602c-.68.695-1.208 1.552-1.583 2.563-.372 1.014-.56 2.162-.56 3.447 0 1.237.181 2.358.544 3.362.36 1.005.874 1.857 1.535 2.562a6.78 6.78 0 0 0 2.394 1.636c.933.383 1.982.574 3.15.574 1.118 0 2.155-.187 3.102-.56a6.894 6.894 0 0 0 2.442-1.617c.681-.707 1.215-1.567 1.597-2.58.387-1.013.58-2.162.58-3.445 0-1.236-.188-2.36-.563-3.361-.373-1.004-.895-1.858-1.567-2.564"/>
    </g>
</svg>
